<svg xmlns="http://www.w3.org/2000/svg" width="958.37" height="304" viewBox="0 0 958.37 304">
  <g id="Group_258" data-name="Group 258" transform="translate(-204 -232)">
    <circle id="Ellipse_14" data-name="Ellipse 14" cx="152" cy="152" r="152" transform="translate(204 232)" fill="#0e293c"/>
    <rect id="Rectangle_41" data-name="Rectangle 41" width="50" height="123" rx="25" transform="translate(306 350)" fill="#5dcc99"/>
    <g id="Rectangle_45" data-name="Rectangle 45" transform="translate(331 350)" fill="none" stroke="#fff" stroke-width="5">
      <rect width="50" height="123" rx="25" stroke="none"/>
      <rect x="2.5" y="2.5" width="45" height="118" rx="22.5" fill="none"/>
    </g>
    <path id="Path_262" data-name="Path 262" d="M25,0A25,25,0,1,1,0,25,25,25,0,0,1,25,0Z" transform="translate(306 293)" fill="#5dcc99"/>
    <g id="Path_263" data-name="Path 263" transform="translate(388 423)" fill="none">
      <path d="M25,0A25,25,0,1,1,0,25,25,25,0,0,1,25,0Z" stroke="none"/>
      <path d="M 25 5 C 19.65780067443848 5 14.63536834716797 7.080368041992188 10.85786819458008 10.85786819458008 C 7.080368041992188 14.63536834716797 5 19.65780067443848 5 25 C 5 30.34219932556152 7.080368041992188 35.36463165283203 10.85786819458008 39.14213562011719 C 14.63536834716797 42.91963195800781 19.65780067443848 45 25 45 C 30.34219932556152 45 35.36463165283203 42.91963195800781 39.14213562011719 39.14213562011719 C 42.91963195800781 35.36463165283203 45 30.34219932556152 45 25 C 45 19.65780067443848 42.91963195800781 14.63536834716797 39.14213562011719 10.85786819458008 C 35.36463165283203 7.080368041992188 30.34219932556152 5 25 5 M 25 0 C 38.80712127685547 0 50 11.19287872314453 50 25 C 50 38.80712127685547 38.80712127685547 50 25 50 C 11.19287872314453 50 0 38.80712127685547 0 25 C 0 11.19287872314453 11.19287872314453 0 25 0 Z" stroke="none" fill="#fff"/>
    </g>
    <path id="Path_265" data-name="Path 265" d="M8.7-101.5V0H31.9V-101.5ZM91.06-74.53c-9.57,0-16.82,3.48-20.735,8.845V-72.5H48.575V0h21.75V-39.585c0-10.3,5.51-14.935,13.485-14.935,6.96,0,12.615,4.2,12.615,13.195V0h21.75V-44.515C118.175-64.09,105.705-74.53,91.06-74.53ZM175.6-51.62V-72.5H160.66V-92.8l-21.75,6.525V-72.5h-11.6v20.88h11.6v25.665C138.91-5.655,147.175,2.9,175.6,0V-19.72c-9.57.58-14.935,0-14.935-6.235V-51.62Zm30.3,24.07h51.475a42.15,42.15,0,0,0,.87-8.7c0-21.9-15.66-38.28-36.83-38.28-22.91,0-38.57,16.675-38.57,38.28S198.215,2.03,223.01,2.03c13.775,0,24.505-5.075,31.61-14.935L237.22-22.91c-2.9,3.19-7.975,5.51-13.92,5.51C215.325-17.4,208.655-20.01,205.9-27.55Zm-.435-16.24c2.03-7.4,7.54-11.455,15.8-11.455,6.525,0,13.05,3.045,15.37,11.455ZM292.32-59.6V-72.5H270.57V0h21.75V-32.77c0-14.355,12.76-17.98,21.75-16.53V-73.95C304.935-73.95,295.22-69.31,292.32-59.6Zm78.155-12.9-15.08,45.965L340.315-72.5h-24.07L343.07,0h24.65l26.825-72.5Zm42.92-6.38a13.183,13.183,0,0,0,13.05-13.05,13.183,13.183,0,0,0-13.05-13.05,13.183,13.183,0,0,0-13.05,13.05A13.183,13.183,0,0,0,413.4-78.88ZM402.52,0h21.75V-72.5H402.52Zm57.13-27.55h51.475a42.15,42.15,0,0,0,.87-8.7c0-21.9-15.66-38.28-36.83-38.28-22.91,0-38.57,16.675-38.57,38.28S451.965,2.03,476.76,2.03c13.775,0,24.505-5.075,31.61-14.935L490.97-22.91c-2.9,3.19-7.975,5.51-13.92,5.51C469.075-17.4,462.4-20.01,459.65-27.55Zm-.435-16.24c2.03-7.4,7.54-11.455,15.8-11.455,6.525,0,13.05,3.045,15.37,11.455ZM601.17-72.5,590.73-33.64,579.42-72.5h-20.3L547.81-33.64,537.37-72.5h-23.2L537.37,0h20.3l11.6-38.715L580.87,0h20.3l23.2-72.5ZM31.9,87.67V8.5H8.7V110H68.15V87.67Zm64.38-5.22h51.475a42.15,42.15,0,0,0,.87-8.7c0-21.9-15.66-38.28-36.83-38.28-22.91,0-38.57,16.675-38.57,38.28s15.37,38.28,40.165,38.28c13.775,0,24.505-5.075,31.61-14.935L127.6,87.09c-2.9,3.19-7.975,5.51-13.92,5.51C105.705,92.6,99.035,89.99,96.28,82.45Zm-.435-16.24c2.03-7.4,7.54-11.455,15.8-11.455,6.525,0,13.05,3.045,15.37,11.455ZM212.86,37.5v6.815c-4.785-5.51-11.89-8.845-21.6-8.845-19,0-34.655,16.675-34.655,38.28s15.66,38.28,34.655,38.28c9.715,0,16.82-3.335,21.6-8.845V110h21.75V37.5ZM195.6,91.44c-10,0-17.255-6.815-17.255-17.69S185.6,56.06,195.6,56.06s17.255,6.815,17.255,17.69S205.61,91.44,195.6,91.44Zm98.31-55.97c-9.715,0-16.82,3.335-21.605,8.845V37.5H250.56V139h21.75V103.185c4.785,5.51,11.89,8.845,21.605,8.845,18.995,0,34.655-16.675,34.655-38.28S312.91,35.47,293.915,35.47Zm-4.35,55.97c-10.005,0-17.255-6.815-17.255-17.69s7.25-17.69,17.255-17.69,17.255,6.815,17.255,17.69S299.57,91.44,289.565,91.44Z" transform="translate(538 379)" fill="#0e293c"/>
  </g>
</svg>
