<svg id="brands-and-logotypes_4_" data-name="brands-and-logotypes (4)" xmlns="http://www.w3.org/2000/svg" width="28" height="28" viewBox="0 0 28 28">
  <path id="Path_31" data-name="Path 31" d="M6.562,108.735a7.392,7.392,0,0,1,1.046-3.8v-4.72H2.889a14.007,14.007,0,0,0,0,17.039h4.72v-4.72A7.392,7.392,0,0,1,6.562,108.735Z" transform="translate(0 -94.735)" fill="#fbbd00"/>
  <path id="Path_32" data-name="Path 32" d="M199.281,374,196,377.283l3.281,3.281a13.894,13.894,0,0,0,8.52-2.889v-4.715h-4.715A7.437,7.437,0,0,1,199.281,374Z" transform="translate(-185.281 -352.565)" fill="#0f9d58"/>
  <path id="Path_33" data-name="Path 33" d="M57.543,325.477l-4.72,4.72a14.228,14.228,0,0,0,1.212,1.38,13.908,13.908,0,0,0,9.9,4.1v-6.562a7.441,7.441,0,0,1-6.391-3.638Z" transform="translate(-49.934 -307.677)" fill="#31aa52"/>
  <path id="Path_34" data-name="Path 34" d="M270,200.533a14.121,14.121,0,0,0-.229-2.536l-.123-.673H256v6.563h6.642a7.4,7.4,0,0,1-2.837,3.043l4.715,4.715a14.221,14.221,0,0,0,1.38-1.212A13.909,13.909,0,0,0,270,200.533Z" transform="translate(-242 -186.533)" fill="#3c79e6"/>
  <path id="Path_35" data-name="Path 35" d="M204.54,8.741l.58.58,4.64-4.64-.58-.58a13.908,13.908,0,0,0-9.9-4.1L196,3.281l3.281,3.281A7.389,7.389,0,0,1,204.54,8.741Z" transform="translate(-185.281)" fill="#cf2d48"/>
  <path id="Path_36" data-name="Path 36" d="M63.933,6.563V0a13.909,13.909,0,0,0-9.9,4.1,14.211,14.211,0,0,0-1.212,1.38l4.72,4.72A7.441,7.441,0,0,1,63.933,6.563Z" transform="translate(-49.933 0)" fill="#eb4132"/>
</svg>
