<svg xmlns="http://www.w3.org/2000/svg" width="132" height="180" viewBox="0 0 132 180">
  <g id="Group_256" data-name="Group 256" transform="translate(-306 -293)">
    <rect id="Rectangle_41" data-name="Rectangle 41" width="50" height="123" rx="25" transform="translate(306 350)" fill="#5dcc99"/>
    <g id="Rectangle_45" data-name="Rectangle 45" transform="translate(331 350)" fill="none" stroke="#0e293c" stroke-width="5">
      <rect width="50" height="123" rx="25" stroke="none"/>
      <rect x="2.5" y="2.5" width="45" height="118" rx="22.5" fill="none"/>
    </g>
    <path id="Path_262" data-name="Path 262" d="M25,0A25,25,0,1,1,0,25,25,25,0,0,1,25,0Z" transform="translate(306 293)" fill="#5dcc99"/>
    <g id="Path_263" data-name="Path 263" transform="translate(388 423)" fill="none">
      <path d="M25,0A25,25,0,1,1,0,25,25,25,0,0,1,25,0Z" stroke="none"/>
      <path d="M 25 5 C 19.65780067443848 5 14.63536834716797 7.080368041992188 10.85786819458008 10.85786819458008 C 7.080368041992188 14.63536834716797 5 19.65780067443848 5 25 C 5 30.34219932556152 7.080368041992188 35.36463165283203 10.85786819458008 39.14213562011719 C 14.63536834716797 42.91963195800781 19.65780067443848 45 25 45 C 30.34219932556152 45 35.36463165283203 42.91963195800781 39.14213562011719 39.14213562011719 C 42.91963195800781 35.36463165283203 45 30.34219932556152 45 25 C 45 19.65780067443848 42.91963195800781 14.63536834716797 39.14213562011719 10.85786819458008 C 35.36463165283203 7.080368041992188 30.34219932556152 5 25 5 M 25 0 C 38.80712127685547 0 50 11.19287872314453 50 25 C 50 38.80712127685547 38.80712127685547 50 25 50 C 11.19287872314453 50 0 38.80712127685547 0 25 C 0 11.19287872314453 11.19287872314453 0 25 0 Z" stroke="none" fill="#0e293c"/>
    </g>
  </g>
</svg>
