<svg id="instagram-sketched_2_" data-name="instagram-sketched (2)" xmlns="http://www.w3.org/2000/svg" width="21.082" height="21.086" viewBox="0 0 21.082 21.086">
  <defs>
    <style>
      .cls-1 {
        fill: #fff;
      }
    </style>
  </defs>
  <path id="Path_10149" data-name="Path 10149" class="cls-1" d="M21.478,6.2a7.7,7.7,0,0,0-.49-2.558A5.4,5.4,0,0,0,17.9.556a7.725,7.725,0,0,0-2.558-.49C14.216.012,13.857,0,10.994,0S7.773.012,6.649.062a7.707,7.707,0,0,0-2.558.49A5.145,5.145,0,0,0,2.22,1.771,5.192,5.192,0,0,0,1.005,3.637,7.726,7.726,0,0,0,.515,6.2C.462,7.324.449,7.682.449,10.545s.012,3.221.062,4.346A7.7,7.7,0,0,0,1,17.449a5.4,5.4,0,0,0,3.085,3.085,7.726,7.726,0,0,0,2.558.49c1.124.05,1.483.062,4.346.062s3.221-.012,4.346-.062a7.7,7.7,0,0,0,2.558-.49,5.394,5.394,0,0,0,3.085-3.085,7.731,7.731,0,0,0,.49-2.558c.049-1.125.062-1.483.062-4.346S21.527,7.324,21.478,6.2Zm-1.9,8.609a5.78,5.78,0,0,1-.363,1.957,3.5,3.5,0,0,1-2,2,5.8,5.8,0,0,1-1.957.362c-1.112.05-1.446.062-4.259.062s-3.151-.012-4.259-.062a5.777,5.777,0,0,1-1.957-.362,3.245,3.245,0,0,1-1.211-.787,3.278,3.278,0,0,1-.787-1.211,5.8,5.8,0,0,1-.362-1.957c-.05-1.112-.062-1.446-.062-4.259s.012-3.151.062-4.259a5.777,5.777,0,0,1,.362-1.957,3.205,3.205,0,0,1,.791-1.211A3.273,3.273,0,0,1,4.787,2.34a5.8,5.8,0,0,1,1.957-.363C7.856,1.928,8.189,1.915,11,1.915s3.151.012,4.259.062a5.78,5.78,0,0,1,1.957.363,3.242,3.242,0,0,1,1.211.787,3.278,3.278,0,0,1,.787,1.211,5.8,5.8,0,0,1,.363,1.957c.049,1.112.062,1.446.062,4.259S19.628,13.7,19.579,14.809Zm0,0" transform="translate(-0.449 0)"/>
  <path id="Path_10150" data-name="Path 10150" class="cls-1" d="M130.366,124.5a5.417,5.417,0,1,0,5.417,5.417A5.418,5.418,0,0,0,130.366,124.5Zm0,8.931a3.514,3.514,0,1,1,3.514-3.514A3.514,3.514,0,0,1,130.366,133.431Zm0,0" transform="translate(-119.821 -119.372)"/>
  <path id="Path_10151" data-name="Path 10151" class="cls-1" d="M364.979,89.866a1.265,1.265,0,1,1-1.265-1.265A1.265,1.265,0,0,1,364.979,89.866Zm0,0" transform="translate(-347.538 -84.952)"/>
</svg>
