<svg id="linkedin_2_" data-name="linkedin (2)" xmlns="http://www.w3.org/2000/svg" width="20.954" height="20.029" viewBox="0 0 20.954 20.029">
  <defs>
    <style>
      .cls-1 {
        fill: #fff;
      }
    </style>
  </defs>
  <path id="Path_10146" data-name="Path 10146" class="cls-1" d="M2.541-.668A2.341,2.341,0,1,0,2.482,4h.029a2.342,2.342,0,1,0,.03-4.67Zm0,0" transform="translate(0 0.668)"/>
  <path id="Path_10147" data-name="Path 10147" class="cls-1" d="M8.109,198.313H12.6v13.514H8.109Zm0,0" transform="translate(-7.844 -191.798)"/>
  <path id="Path_10148" data-name="Path 10148" class="cls-1" d="M229.755,188.625a5.627,5.627,0,0,0-4.048,2.277v-1.96h-4.492v13.514h4.492v-7.547a3.078,3.078,0,0,1,.148-1.1,2.459,2.459,0,0,1,2.3-1.643c1.625,0,2.275,1.239,2.275,3.056v7.229h4.491v-7.749C234.926,190.557,232.71,188.625,229.755,188.625Zm0,0" transform="translate(-213.972 -182.427)"/>
</svg>
