<svg xmlns="http://www.w3.org/2000/svg" xmlns:xlink="http://www.w3.org/1999/xlink" width="319.59" height="191.88" viewBox="0 0 319.59 191.88">
  <defs>
    <linearGradient id="linear-gradient" x1="0.538" y1="0.919" x2="0.433" y2="0.181" gradientUnits="objectBoundingBox">
      <stop offset="0" stop-color="#f79239"/>
      <stop offset="1" stop-color="#f7c759"/>
    </linearGradient>
    <linearGradient id="linear-gradient-2" y1="0.5" x2="1" y2="0.5" gradientUnits="objectBoundingBox">
      <stop offset="0" stop-color="#3f2323"/>
      <stop offset="1" stop-color="#5e3434"/>
    </linearGradient>
  </defs>
  <g id="Group_269" data-name="Group 269" transform="translate(-416.5 -54.852)">
    <g id="Group_254" data-name="Group 254" transform="translate(425.245 54.852)">
      <path id="Path_229" data-name="Path 229" d="M732.622,188.332c-.087.495-.173.977-.26,1.459-6.221,34.975-24.426,50.348-24.426,50.348H434.8s-16.708-30.709-9.362-57.509c.111-.408.223-.816.346-1.212,4.836-15.954,18.477-30.325,49.643-35.73,6.7-1.163,12.875-2.276,18.564-3.339.8-.161,1.583-.309,2.362-.458,19.776-3.784,33.565-7.161,44.053-11.019h.012c.767-.284,1.521-.581,2.263-.866,21.309-8.385,28.594-19.281,47.689-41.419q2.226-2.579,4.749-5.058c.371-.371.742-.73,1.125-1.076a105.624,105.624,0,0,1,38.723-23.127c.4-.136.792-.272,1.187-.4,18.885-5.986,39.4-6.072,56.754,4.4.656.4,1.311.8,1.966,1.237,13.74,9.065,25.316,25.081,32.23,50.447C735.367,145.355,735.714,169.583,732.622,188.332Z" transform="translate(-423.571 -54.852)" fill="#e4ebf7"/>
      <g id="Group_253" data-name="Group 253" transform="translate(1.867 4.079)">
        <path id="Path_230" data-name="Path 230" d="M672.442,119.627c-3.933,19.825-17.451,35.767-40.17,47.4-44.647,22.843-62.419,51.424-69.444,71.484h-1.3l.037-.111c7.037-20.3,24.921-49.334,70.136-72.474,22.373-11.452,35.668-27.11,39.527-46.539,3.97-20.035-2.758-41.048-10.982-57.682.656.4,1.311.8,1.966,1.237C670.129,79.47,676.325,100,672.442,119.627Z" transform="translate(-392.775 -57.307)" fill="#fff"/>
        <path id="Path_231" data-name="Path 231" d="M693.908,162.78c-.087.495-.173.977-.26,1.459-15.991,7.359-36.385,15.262-62.221,23.127-20.456,6.221-34.815,15.348-42.853,27.221H587.09c8.1-12.454,22.843-21.977,43.979-28.408C657.288,178.2,677.855,170.2,693.908,162.78Z" transform="translate(-386.724 -33.379)" fill="#fff"/>
        <path id="Path_232" data-name="Path 232" d="M624.332,78.4c-.012,21.557-6.345,50.9-36.385,68.38-12.726,7.408-27.023,10.191-41.345,10.191-19.442,0-38.921-5.133-54.578-10.859-3.97-1.447-7.829-2.981-11.514-4.539.8-.161,1.583-.309,2.362-.458,30.931,12.751,72.8,23.016,104.456,4.6C616.862,128.534,623.083,99.618,623.1,78.4a127.983,127.983,0,0,0-1.608-19.85c.4-.136.792-.272,1.187-.4A129.572,129.572,0,0,1,624.332,78.4Z" transform="translate(-411.957 -58.15)" fill="#fff"/>
        <path id="Path_233" data-name="Path 233" d="M570.748,115.658c-6.023,7.952-16.684,11.935-31.846,11.935a123.094,123.094,0,0,1-20.852-2c.767-.284,1.521-.581,2.263-.866,24.871,3.995,41.468.717,49.445-9.807,7.148-9.412,6.369-23.424,2.993-36.67.371-.371.742-.73,1.125-1.076C577.476,90.873,578.379,105.6,570.748,115.658Z" transform="translate(-403.069 -53.647)" fill="#fff"/>
        <path id="Path_234" data-name="Path 234" d="M571.623,215.911h-1.274c-2.622-10.352-7.482-21.532-16.35-30.61-14.532-14.878-36.6-21.1-65.573-18.465-26.528,2.4-47.751-.433-63.346-8.435.111-.408.223-.816.346-1.212,15.41,7.977,36.472,10.8,62.889,8.41,29.385-2.659,51.77,3.686,66.574,18.848C564.017,193.8,568.976,205.3,571.623,215.911Z" transform="translate(-425.08 -34.702)" fill="#fff"/>
      </g>
    </g>
    <g id="Group_255" data-name="Group 255" transform="translate(423.612 178.865)">
      <path id="Path_235" data-name="Path 235" d="M463.548,204.75s7.111-15.923-9.276-28.291-20.1-21.334-20.1-21.334-5.536,29.04,4.483,42.823V217.89h24.258Z" transform="translate(-419.788 -155.125)" fill="#4e8fb7"/>
      <path id="Path_236" data-name="Path 236" d="M445.775,211.422s-.8-11.131,10.279-18.582,10.922-14.965,10.922-14.965,8.513,21.317-2.248,33.547Z" transform="translate(-416.684 -149.739)" fill="#70b2dd"/>
      <path id="Path_237" data-name="Path 237" d="M453.8,212.931s1.713-15-12.283-23.035-16.935-18.4-16.935-18.4-7.73,26.126,4.947,41.431Z" transform="translate(-422.25 -151.248)" fill="#abdaf7"/>
    </g>
    <g id="Group_263" data-name="Group 263" transform="translate(514.568 88.216)">
      <g id="Group_258" data-name="Group 258" transform="translate(10.482 58.808)">
        <g id="Group_256" data-name="Group 256" transform="translate(0 62.545)">
          <path id="Path_238" data-name="Path 238" d="M521.1,180.939a100.129,100.129,0,0,1-16.832,20.609v7.477h16.72s5.283-2.845,15.869-10.933C536.858,198.093,540.33,174.962,521.1,180.939Z" transform="translate(-504.27 -179.952)" fill="#f49187"/>
          <path id="Path_239" data-name="Path 239" d="M607.691,194.519s-.779,14.841-4.489,15.769-18.912-12.837-18.912-12.837l-1.729-6.567,11.263-8.216S607.233,186.789,607.691,194.519Z" transform="translate(-485.735 -179.309)" fill="#f49187"/>
        </g>
        <g id="Group_257" data-name="Group 257" transform="translate(16.72)">
          <path id="Path_240" data-name="Path 240" d="M623.025,207.135c-3.562-6.8-25.514-1.855-25.514-1.855L613.131,221h-70.2c2.325-8.088.94-27.777.94-27.777-.012.148-.037.284-.062.433-1.026,7.9-5.207,12.083-5.207,12.083-.3,4.032-4.947,4.329-4.947,4.329a27.334,27.334,0,0,0-2.387-8.917c-4.564-9.436-13.369-8.237-13.369-8.237-.94-4.947,4.329-6.184,4.329-6.184s6.481-37.721,15.917-45.141,24.822-11.131,24.822-11.131l15.843-1.076s31.067,6.184,37.251,16.845,5.108,51.016,5.108,51.016C626.117,201.26,623.025,207.135,623.025,207.135Z" transform="translate(-517.789 -129.38)" fill="url(#linear-gradient)"/>
          <path id="Path_241" data-name="Path 241" d="M592.874,198.948s2.628-22.88-5.875-42.823c0,0,1.391,30.3-10.976,38.8s-33.392,6.8-38.648,21.643l46.378-.412Z" transform="translate(-513.152 -123.048)" fill="#f6613a" opacity="0.5"/>
          <path id="Path_242" data-name="Path 242" d="M541.231,186.592c-1.026,7.9-5.207,12.083-5.207,12.083-.3,4.032-4.947,4.329-4.947,4.329a27.334,27.334,0,0,0-2.387-8.917,26.178,26.178,0,0,0,6.876-11.428c3.277-10.834,1.187-22.608,1.039-23.449A199.214,199.214,0,0,1,541.231,186.592Z" transform="translate(-515.208 -122.318)" fill="#f6613a" opacity="0.5"/>
        </g>
      </g>
      <path id="Path_243" data-name="Path 243" d="M566,198.742s17.469-12.213,32.31-7.266,13.6,15.15,8.812,17.005h-37Z" transform="translate(-479.173 -56.149)" fill="#feb19e"/>
      <g id="Group_259" data-name="Group 259" transform="translate(41.534)">
        <path id="Path_244" data-name="Path 244" d="M574.51,133.971s-3.636,20.406-14.458,20.518c-9.449.087-7.26-12.306-6.555-15.459.1-.47.173-.73.173-.73l-3.92-14.94,20.815-11.019.42,2.288v.037Z" transform="translate(-524.554 -74.606)" fill="#feb19e"/>
        <path id="Path_245" data-name="Path 245" d="M553.5,139.029c.1-.47.173-.73.173-.73l-3.92-14.94,20.815-11.019.42,2.288v.037C573.718,139.029,553.881,139.029,553.5,139.029Z" transform="translate(-524.554 -74.606)" fill="#ff856a"/>
        <path id="Path_246" data-name="Path 246" d="M578.148,112.264a36.549,36.549,0,0,0,3.4-12.136c.618-6.338-1.159-7.806-3.787-7.806,0,0-1.391-7.189-4.716-9.663s-16.851,1.16-22.029,4.252-8.966-5.426-11.363-5.071-2.859,6.926-1,9.863c0,0-4.329-2.4-5.025-4.87s-5.642,2.01-3.865,11.209,5.875,10.358,5.875,10.358.773,9.739,8.735,10.822,28.986-.773,28.986-.773Z" transform="translate(-529.377 -81.829)" fill="url(#linear-gradient-2)"/>
        <path id="Path_247" data-name="Path 247" d="M538.875,104.483s3.865,26.436,13.6,29.837,17.881-7,19.118-9.779,1.757-8.615,1.757-8.615,3.318.77,3.705-5.1-4.716-9.352-5.952.773c0,0-4.766-2.628-3.323-11.595a20.922,20.922,0,0,1-13.089,5.154c-7.627,0-1.031-5.154-1.031-5.154A20.945,20.945,0,0,1,538.875,104.483Z" transform="translate(-527.129 -77.527)" fill="#feb19e"/>
      </g>
      <g id="Group_262" data-name="Group 262" transform="translate(0 124.105)">
        <g id="Group_260" data-name="Group 260" transform="translate(50.652 16.684)">
          <rect id="Rectangle_148" data-name="Rectangle 148" width="63.487" height="3.401" transform="translate(0 8.142)" fill="#abdaf7"/>
          <rect id="Rectangle_149" data-name="Rectangle 149" width="19.582" height="3.401" transform="translate(43.905 8.142)" fill="#70b2dd"/>
          <path id="Path_248" data-name="Path 248" d="M584.192,203.911s-5.615-8.378-14.037-8.243c-6.373.1-6.609,4.121-6.609,4.121s-4.188-.5-4.3,4.122Z" transform="translate(-531.423 -195.667)" fill="#ffc7ae"/>
        </g>
        <g id="Group_261" data-name="Group 261">
          <path id="Path_249" data-name="Path 249" d="M520.268,204.049s.309-4.638-1.751-5.256a3.74,3.74,0,0,0-3.608,1.133s-1.546-6.8-7.318-7.007-16.18,5.668-9.79,11.131Z" transform="translate(-495.794 -179.635)" fill="#feb19e"/>
          <path id="Path_250" data-name="Path 250" d="M534.957,203.825a1.905,1.905,0,0,1-1.9,1.9H498.325a1.9,1.9,0,0,1,0-3.809h34.728A1.905,1.905,0,0,1,534.957,203.825Z" transform="translate(-495.646 -177.503)" fill="#70b2dd"/>
          <path id="Path_251" data-name="Path 251" d="M524.655,203.825a1.905,1.905,0,0,1-1.9,1.9H498.325a1.9,1.9,0,0,1,0-3.809H522.75A1.905,1.905,0,0,1,524.655,203.825Z" transform="translate(-495.646 -177.503)" fill="#abdaf7"/>
          <path id="Path_252" data-name="Path 252" d="M513.83,203.525l-6.157-20.117a1.739,1.739,0,0,0-2.112-1.171h0a1.738,1.738,0,0,0-1.179,2.294l7.36,19.535A1.573,1.573,0,0,0,513.83,203.525Z" transform="translate(-493.788 -182.177)" fill="#525559"/>
        </g>
      </g>
    </g>
    <g id="Group_265" data-name="Group 265" transform="translate(440.545 151.094)">
      <path id="Path_253" data-name="Path 253" d="M478.681,160.238c.67,4.058-.789,7.679-3.26,8.087s-5.018-2.55-5.689-6.609.79-7.678,3.26-8.086S478.011,156.18,478.681,160.238Z" transform="translate(-427.981 -127.717)" fill="#fff" stroke="#f230db" stroke-miterlimit="10" stroke-width="1"/>
      <path id="Path_254" data-name="Path 254" d="M524.219,200.951H458.288a7.076,7.076,0,0,1-6.555-4.465c-7.717-19.269-13.419-38.005-15.732-55.852a7.059,7.059,0,0,1,7-7.965h66.834a7.04,7.04,0,0,1,6.963,6.011c2.511,16.535,7.421,34.258,14.074,52.871A7.049,7.049,0,0,1,524.219,200.951Z" transform="translate(-435.942 -132.67)" fill="#90c6e0"/>
      <path id="Path_255" data-name="Path 255" d="M521.547,200.951h-63.26a7.076,7.076,0,0,1-6.555-4.465c-7.717-19.269-13.419-38.005-15.732-55.852a7.059,7.059,0,0,1,7-7.965h64.15a7.062,7.062,0,0,1,6.975,6.011c2.5,16.535,7.408,34.258,14.062,52.871A7.042,7.042,0,0,1,521.547,200.951Z" transform="translate(-435.942 -132.67)" fill="#abdaf7"/>
      <g id="Group_264" data-name="Group 264" transform="translate(41.296 57.138)">
        <path id="Path_256" data-name="Path 256" d="M510.393,211.186H485.064a8.631,8.631,0,0,1-8.15-5.813l-7.581-26.491c4.193.012,8.311-.012,12.355-.012,1.348,0,2.7,0,4.032.012l6.035,20.6a6.833,6.833,0,0,0,5.343,4.39l9.474,1.484a3.917,3.917,0,0,1,3.216,3.03Z" transform="translate(-469.333 -178.87)" fill="#90c6e0"/>
        <path id="Path_257" data-name="Path 257" d="M494.733,203.877l-2.14-.2a8.04,8.04,0,0,1-6.765-5l-6.505-19.813c1.348,0,2.7,0,4.032.012l6.035,20.6A6.833,6.833,0,0,0,494.733,203.877Z" transform="translate(-466.968 -178.87)" fill="#90c6e0" opacity="0.35" style="mix-blend-mode: multiply;isolation: isolate"/>
      </g>
      <path id="Path_258" data-name="Path 258" d="M478.265,160.845c.939,3.917-.263,7.563-2.685,8.143s-5.146-2.124-6.085-6.042.262-7.563,2.684-8.143S477.325,156.927,478.265,160.845Z" transform="translate(-428.074 -127.449)" fill="#fff"/>
    </g>
    <g id="Group_266" data-name="Group 266" transform="translate(416.5 240.548)">
      <rect id="Rectangle_150" data-name="Rectangle 150" width="301.149" height="6.184" fill="#70b2dd"/>
      <rect id="Rectangle_151" data-name="Rectangle 151" width="66.785" height="6.184" transform="translate(234.365)" fill="#4e8fb7"/>
    </g>
    <g id="Group_267" data-name="Group 267" transform="translate(674.054 190.446)">
      <path id="Path_259" data-name="Path 259" d="M636.808,188.016l-2.886-17.933-9.173,1.134,3.4,17.828Z" transform="translate(-624.75 -163.165)" fill="#70b2dd"/>
      <path id="Path_260" data-name="Path 260" d="M634.285,187.692l3.176-22.132a1.248,1.248,0,0,1,1.441-1.054h0a1.248,1.248,0,0,1,1.028,1.42l-3.523,22.9h1.339l4.723-17.545a1.281,1.281,0,0,1,1.546-.909h0a1.28,1.28,0,0,1,.928,1.566l-4.414,16.888-4.431,2.06Z" transform="translate(-622.493 -164.489)" fill="#4e8fb7"/>
      <path id="Path_261" data-name="Path 261" d="M645.759,183.25v22.83a3.66,3.66,0,0,1-3.661,3.661H628.911a3.66,3.66,0,0,1-3.661-3.661V183.25Z" transform="translate(-624.632 -160.047)" fill="#abdaf7"/>
      <rect id="Rectangle_152" data-name="Rectangle 152" width="20.509" height="5.355" transform="translate(0.618 23.203)" fill="#90c6e0"/>
    </g>
    <g id="Group_268" data-name="Group 268" transform="translate(637.301 63.493)">
      <circle id="Ellipse_11" data-name="Ellipse 11" cx="29.175" cy="29.175" r="29.175" transform="translate(8.064 9.704)" fill="#70b2dd" opacity="0.35" style="mix-blend-mode: multiply;isolation: isolate"/>
      <circle id="Ellipse_12" data-name="Ellipse 12" cx="27.452" cy="27.452" r="27.452" transform="translate(0 24.243) rotate(-26.203)" fill="#70b2dd"/>
      <circle id="Ellipse_13" data-name="Ellipse 13" cx="20.197" cy="20.197" r="20.197" transform="translate(13.767 53.708) rotate(-81.414)" fill="#abdaf7"/>
      <path id="Path_262" data-name="Path 262" d="M636.586,93.755h-9.951V80.311a1.921,1.921,0,0,0-3.841,0V97.283h13.792a1.764,1.764,0,0,0,0-3.527Z" transform="translate(-588.461 -57.92)" fill="#70b2dd"/>
    </g>
  </g>
</svg>
