<svg xmlns="http://www.w3.org/2000/svg" xmlns:xlink="http://www.w3.org/1999/xlink" width="357" height="212.473" viewBox="0 0 357 212.473">
  <defs>
    <clipPath id="clip-path">
      <path id="Path_476" data-name="Path 476" d="M348.57,374.04c-90.812-5.285-163.639-101.361-115.316-157.118,37.478-43.244,87.448,19.7,134.055-12.012,71.7-48.788,187.869-57.658,203.245,3.844S535,366.352,497.039,372.118,348.57,374.04,348.57,374.04Z" transform="translate(-217.853 -165.452)" fill="none"/>
    </clipPath>
  </defs>
  <g id="Group_459" data-name="Group 459" transform="translate(-298 -291.527)">
    <rect id="Rectangle_237" data-name="Rectangle 237" width="357" height="212" transform="translate(298 292)" fill="#e7f3fe"/>
    <g id="Group_395" data-name="Group 395" transform="translate(298 291.527)">
      <path id="Path_471" data-name="Path 471" d="M448.24,366.645c.961,23.064.721,35.556-7.688,45.166s-31.952,7.207-31.952,7.207-2.322,33.954-35.235,35.4-37.638-42.282-11.852-53.494c24.546-10.672,32.353-13.774,40.841-40.2,7.755-24.142,31.953-19.54,37.718-9.449S448.24,366.645,448.24,366.645Z" transform="translate(-305.751 -288.268)" fill="#303c60"/>
      <path id="Path_472" data-name="Path 472" d="M644.513,792.331s15.536,3.043,16.336,2.883,17.778-7.688,19.54-6.567,12.012,5.445,14.254,6.406-1.281,1.281-3.043,1.281-11.852-4.164-12.973-3.363,8.809,2.4,8.809,3.043-26.587,6.726-28.188,6.726-13.934-1.121-13.934-1.121Z" transform="translate(-512.835 -596.235)" fill="#e38540"/>
      <path id="Path_473" data-name="Path 473" d="M602.737,525.923c8.368,1.642,13.293,10.5,14.9,18.255S602.737,525.923,602.737,525.923Z" transform="translate(-483.952 -414.673)" fill="#6791c9"/>
      <g id="Group_379" data-name="Group 379">
        <g id="Group_378" data-name="Group 378" clip-path="url(#clip-path)">
          <path id="Path_474" data-name="Path 474" d="M494.907,502s-16.1,10.811-24.745,16.1,3.123,62.223,6.006,83.364,52.853,1.922,52.853,1.922-3.363-17.778.961-46.367c3.1-20.478-8.248-33.314-14.735-42.2C498.876,492.376,494.907,502,494.907,502Z" transform="translate(-390.136 -396.713)" fill="#75a1de"/>
          <path id="Path_475" data-name="Path 475" d="M474.2,559.525c18.5,22.583,24.752,26.8,20.18,42.042-3.6,12.012-4.8,16.336-5.526,20.421s34.355-2.643,34.355-2.643l-.24,13.213s-27.628,13.214-41.082,15.856-21.862-.48-21.862-.48Z" transform="translate(-385.285 -437.904)" fill="#6791c9"/>
        </g>
      </g>
      <path id="Path_478" data-name="Path 478" d="M557.873,432.9l-8.328,24.665s9.129,24.745,16.817,19.22c2.625-1.887-.961-16.817-.961-16.817l5.606-20.02Z" transform="translate(-447.177 -350.36)" fill="#f09959"/>
      <path id="Path_479" data-name="Path 479" d="M442.672,556.374c-11.5,1.278-12.493,16.817-17.778,42.763s-3.7,43.072-1.2,46.366c6.006,7.928,73.514-19.7,81.922-19.46,5.8.166.961-9.609.961-9.609l-64.385,9.85s9.129-30.03,9.129-45.406S447,555.893,442.672,556.374Z" transform="translate(-358.563 -435.714)" fill="#f09959"/>
      <path id="Path_480" data-name="Path 480" d="M648.693,743.031c6.727-1.682,16.577-5.526,18.5-3.844s9.85,13.694,12.493,17.057-1.2.721-4.084-1.922a36.711,36.711,0,0,0-5.286-4.084,45.427,45.427,0,0,1-6.967,5.286c-3.363,1.922-4.565-1.922-10.33-2.883s-20.18,4.084-20.18,4.084Z" transform="translate(-504.763 -561.83)" fill="#f09959"/>
      <path id="Path_481" data-name="Path 481" d="M445.317,549.7c-7.047.32-12.492,6.246-14.414,15.375s-7.528,38.118-7.528,38.118-1.121.8,10.57,2.883a56.308,56.308,0,0,0,21.3-.32s2.4-16.5,1.762-27.868-3.2-22.1-7.367-25.786S445.317,549.7,445.317,549.7Z" transform="translate(-359.926 -430.963)" fill="#75a1de"/>
      <path id="Path_482" data-name="Path 482" d="M579.5,459.968l5.606-20.02L571.977,432.9l-2.006,5.941c-.436,19.89,4.658,26.542,8.092,28.974,1.072.759,1.995.172,2.768-1.068C580.267,463.142,579.5,459.968,579.5,459.968Z" transform="translate(-461.281 -350.36)" fill="#e38540"/>
      <path id="Path_483" data-name="Path 483" d="M611.008,399.524c0,10.715-1.279,23.853-10.571,23.544-14.415-.48-23.5-11.685-23.5-22.4s7.537-19.4,16.834-19.4S611.008,388.808,611.008,399.524Z" transform="translate(-466.116 -314.66)" fill="#f09959"/>
      <path id="Path_484" data-name="Path 484" d="M914.83,719.244H860.793l22.226-48.9A4,4,0,0,1,886.659,668H935.7a1.56,1.56,0,0,1,1.421,2.206Z" transform="translate(-662.366 -512.903)" fill="#9bd6e8"/>
      <path id="Path_485" data-name="Path 485" d="M812.185,819.947H712.5a6.289,6.289,0,0,1,6.289-6.289h93.4Z" transform="translate(-559.837 -613.606)" fill="#9bd6e8"/>
      <path id="Path_486" data-name="Path 486" d="M948.743,668H905.527a4,4,0,0,0-3.639,2.343l-22.226,48.9h48.214l22.289-49.036A1.56,1.56,0,0,0,948.743,668Z" transform="translate(-675.411 -512.903)" fill="#7bcee8"/>
      <path id="Path_487" data-name="Path 487" d="M600.268,369.112c10.21-.721,16.256,8.608,18.018,16.777,1.271,5.893.641,7.047.641,7.047s-1.121,1.6-9.129,2.082-8.969.32-8.969.32l-.48-9.289-2.4,8.969s-1.281,1.762-6.246-.64-7.207-10.41-7.207-10.41-1.121-5.286,2.723-8.809S600.268,369.112,600.268,369.112Z" transform="translate(-471.233 -306.23)" fill="#303c60"/>
      <path id="Path_488" data-name="Path 488" d="M567.152,417.48c-.979,6.481-6.152,11.073-11.555,10.257s-8.987-6.732-8.008-13.213,6.153-11.073,11.555-10.257S568.131,411,567.152,417.48Z" transform="translate(-445.713 -330.498)" fill="#d54a41"/>
      <path id="Path_489" data-name="Path 489" d="M563.162,419.586c-.907,6-5.154,10.335-9.486,9.681s-7.109-6.051-6.2-12.051,5.154-10.335,9.487-9.681S564.069,413.585,563.162,419.586Z" transform="translate(-445.625 -332.777)" fill="#f39892"/>
      <path id="Path_490" data-name="Path 490" d="M563.017,427.917c-.5,3.3-2.294,5.76-4.012,5.5s-2.706-3.143-2.208-6.44,2.294-5.76,4.012-5.5S563.516,424.62,563.017,427.917Z" transform="translate(-452.102 -342.448)" fill="#f2e5de"/>
      <path id="Path_491" data-name="Path 491" d="M576.4,373.24c4.685-17.418,20.856-14.877,24.945-12.452a7.848,7.848,0,0,1,3.924,4.925s-4.445-3.6-12.012-2.282c-7.181,1.254-11.452,5.486-12.052,10.17C580.9,375.989,576.4,373.24,576.4,373.24Z" transform="translate(-465.744 -299.308)" fill="#d54a41"/>
      <g id="Group_380" data-name="Group 380" transform="translate(38.414 70.479)">
        <path id="Path_492" data-name="Path 492" d="M342.692,453.5l-.036,0a.37.37,0,0,1-.333-.4,22.179,22.179,0,0,1,6.2-12.749,38.075,38.075,0,0,1,16.643-9.832c15.25-4.716,28.554-10.714,36.914-36.437a.37.37,0,1,1,.7.229c-3.842,11.822-9.072,20.43-15.988,26.314-6.1,5.19-12.972,7.992-21.412,10.6a37.34,37.34,0,0,0-16.322,9.631,21.44,21.44,0,0,0-6,12.313A.371.371,0,0,1,342.692,453.5Z" transform="translate(-342.322 -393.817)" fill="#303c60"/>
      </g>
      <g id="Group_381" data-name="Group 381" transform="translate(45.301 72.882)">
        <path id="Path_493" data-name="Path 493" d="M365.007,441.1a.37.37,0,0,1-.227-.663,44.465,44.465,0,0,1,16-7.116c18.089-3.986,30.233-14.862,35.12-31.455a.37.37,0,0,1,.711.209c-3.019,10.251-8.7,18.34-16.881,24.043a52.3,52.3,0,0,1-18.791,7.926,43.694,43.694,0,0,0-15.709,6.978A.37.37,0,0,1,365.007,441.1Z" transform="translate(-364.636 -401.602)" fill="#303c60"/>
      </g>
      <g id="Group_387" data-name="Group 387" transform="translate(180.617 48.587)">
        <path id="Path_494" data-name="Path 494" d="M1006.7,447.736H957.91a.56.56,0,0,1-.527-.828l9.9-27.19a1.311,1.311,0,0,1,1.13-.828H1017.2a.56.56,0,0,1,.527.828l-9.9,27.19A1.31,1.31,0,0,1,1006.7,447.736Z" transform="translate(-909.726 -389.26)" fill="#9ec8ff"/>
        <path id="Path_495" data-name="Path 495" d="M1009.588,449.311H962.9a.523.523,0,0,1-.492-.773l9.011-24.759a1.224,1.224,0,0,1,1.055-.773h46.686a.524.524,0,0,1,.492.773l-9.012,24.759A1.223,1.223,0,0,1,1009.588,449.311Z" transform="translate(-913.203 -392.106)" fill="#fff"/>
        <path id="Path_496" data-name="Path 496" d="M1013.11,451.311H969.282a.588.588,0,0,1-.553-.869L976.5,429.1a1.375,1.375,0,0,1,1.186-.869h43.829a.588.588,0,0,1,.553.869l-7.768,21.342A1.375,1.375,0,0,1,1013.11,451.311Z" transform="translate(-917.568 -395.717)" fill="#9ec8ff"/>
        <ellipse id="Ellipse_27" data-name="Ellipse 27" cx="9.597" cy="6.682" rx="9.597" ry="6.682" transform="matrix(0.768, -0.641, 0.641, 0.768, 66.179, 45.071)" fill="#fff"/>
        <path id="Path_497" data-name="Path 497" d="M1045.714,450.176c-1.386,3.808-5.6,6.9-9.405,6.9s-5.772-3.087-4.386-6.9,5.6-6.9,9.406-6.9S1047.1,446.368,1045.714,450.176Z" transform="translate(-960.99 -406.123)" fill="#9ec8ff"/>
        <path id="Path_498" data-name="Path 498" d="M1053.043,457.909l-3.05,1.455-3.051,1.455,1.059-2.911,1.06-2.911,1.991,1.455Z" transform="translate(-971.682 -414.224)" fill="#fff"/>
        <g id="Group_382" data-name="Group 382" transform="translate(17.02 18.238)">
          <path id="Path_499" data-name="Path 499" d="M864.329,391.629h-3.844a2.23,2.23,0,0,1-1.874-.9,2.433,2.433,0,0,1-.2-2.254l1.4-3.844a4.16,4.16,0,0,1,3.645-2.65H867.3a2.23,2.23,0,0,1,1.874.9,2.434,2.434,0,0,1,.2,2.254l-1.4,3.844A4.16,4.16,0,0,1,864.329,391.629Zm-.871-8.168a2.71,2.71,0,0,0-2.253,1.675l-1.4,3.844a1,1,0,0,0,.019.9.784.784,0,0,0,.66.271h3.844a2.67,2.67,0,0,0,2.253-1.675l1.4-3.844a1,1,0,0,0-.019-.9.783.783,0,0,0-.66-.27Z" transform="translate(-858.231 -381.979)" fill="#9cd499"/>
        </g>
        <g id="Group_383" data-name="Group 383" transform="translate(11.074 34.575)">
          <path id="Path_500" data-name="Path 500" d="M845.063,444.562h-3.844a2.231,2.231,0,0,1-1.874-.9,2.433,2.433,0,0,1-.2-2.254l1.4-3.844a4.16,4.16,0,0,1,3.645-2.65h3.844a2.231,2.231,0,0,1,1.874.9,2.433,2.433,0,0,1,.2,2.254l-1.4,3.844A4.159,4.159,0,0,1,845.063,444.562Zm-.871-8.168a2.71,2.71,0,0,0-2.253,1.675l-1.4,3.844a1,1,0,0,0,.019.9.783.783,0,0,0,.66.27h3.844a2.669,2.669,0,0,0,2.253-1.675l1.4-3.844a1,1,0,0,0-.019-.9.784.784,0,0,0-.66-.27Z" transform="translate(-838.965 -434.912)" fill="#9cd499"/>
        </g>
        <g id="Group_384" data-name="Group 384" transform="translate(5.128 50.911)">
          <path id="Path_501" data-name="Path 501" d="M825.8,497.495h-3.844a2.231,2.231,0,0,1-1.874-.9,2.433,2.433,0,0,1-.2-2.254l1.4-3.844a4.16,4.16,0,0,1,3.645-2.65h3.844a2.232,2.232,0,0,1,1.874.9,2.435,2.435,0,0,1,.2,2.254l-1.4,3.844A4.16,4.16,0,0,1,825.8,497.495Zm-.871-8.168A2.67,2.67,0,0,0,822.673,491l-1.4,3.844a1,1,0,0,0,.019.9.783.783,0,0,0,.66.27H825.8a2.669,2.669,0,0,0,2.253-1.675l1.4-3.844a1,1,0,0,0-.019-.9.782.782,0,0,0-.66-.27Z" transform="translate(-819.699 -487.845)" fill="#9ec8ff"/>
        </g>
        <path id="Path_502" data-name="Path 502" d="M931.971,399.832H910.83a.489.489,0,0,1-.458-.721,1.144,1.144,0,0,1,.983-.721H932.5a.489.489,0,0,1,.458.721A1.144,1.144,0,0,1,931.971,399.832Z" transform="translate(-877.228 -375.087)" fill="#9ec8ff"/>
        <path id="Path_503" data-name="Path 503" d="M928.571,409.173H907.43a.489.489,0,0,1-.458-.721,1.144,1.144,0,0,1,.983-.721H929.1a.489.489,0,0,1,.458.721A1.144,1.144,0,0,1,928.571,409.173Z" transform="translate(-874.878 -381.546)" fill="#9ec8ff"/>
        <path id="Path_504" data-name="Path 504" d="M914.122,448.873H892.98a.489.489,0,0,1-.458-.721,1.144,1.144,0,0,1,.983-.721h21.141a.489.489,0,0,1,.459.721A1.144,1.144,0,0,1,914.122,448.873Z" transform="translate(-864.887 -408.993)" fill="#9ec8ff"/>
        <path id="Path_505" data-name="Path 505" d="M910.722,458.214H889.581a.488.488,0,0,1-.458-.721,1.143,1.143,0,0,1,.983-.721h21.141a.488.488,0,0,1,.458.721A1.143,1.143,0,0,1,910.722,458.214Z" transform="translate(-862.537 -415.451)" fill="#9ec8ff"/>
        <path id="Path_506" data-name="Path 506" d="M894.289,503.363H873.148a.489.489,0,0,1-.459-.721,1.144,1.144,0,0,1,.983-.721h21.141a.489.489,0,0,1,.459.721A1.144,1.144,0,0,1,894.289,503.363Z" transform="translate(-851.175 -446.666)" fill="#9ec8ff"/>
        <path id="Path_507" data-name="Path 507" d="M890.889,512.7H869.748a.489.489,0,0,1-.458-.721,1.145,1.145,0,0,1,.983-.721h21.141a.489.489,0,0,1,.458.721A1.144,1.144,0,0,1,890.889,512.7Z" transform="translate(-848.825 -453.124)" fill="#9ec8ff"/>
        <g id="Group_385" data-name="Group 385" transform="translate(20.031 17.037)">
          <path id="Path_508" data-name="Path 508" d="M870.18,386.776a.75.75,0,0,1-.195-.026.742.742,0,0,1-.493-.438l-1.451-3.6a.741.741,0,1,1,1.374-.553l1.086,2.7,8.576-6.61a.741.741,0,0,1,.9,1.173l-9.35,7.207A.741.741,0,0,1,870.18,386.776Z" transform="translate(-867.988 -378.087)" fill="#f37168"/>
        </g>
        <g id="Group_386" data-name="Group 386" transform="translate(14.085 33.374)">
          <path id="Path_509" data-name="Path 509" d="M850.914,439.709a.75.75,0,0,1-.195-.026.74.74,0,0,1-.492-.438l-1.451-3.6a.741.741,0,0,1,1.374-.553l1.086,2.7,8.576-6.611a.741.741,0,0,1,.9,1.173l-9.35,7.207A.741.741,0,0,1,850.914,439.709Z" transform="translate(-848.722 -431.02)" fill="#f37168"/>
        </g>
        <path id="Path_510" data-name="Path 510" d="M1126.86,328.649h-81.2l2.1-5.766h81.2Z" transform="translate(-970.794 -322.883)" fill="#9ec8ff"/>
        <path id="Path_511" data-name="Path 511" d="M1116.66,356.672h-81.2l2.1-5.766h81.2Z" transform="translate(-963.742 -342.258)" fill="#9ec8ff"/>
        <path id="Path_512" data-name="Path 512" d="M871.13,587.268H811.5a.961.961,0,0,1-.9-1.417,2.249,2.249,0,0,1,1.932-1.417h59.63a.961.961,0,0,1,.9,1.417A2.249,2.249,0,0,1,871.13,587.268Z" transform="translate(-808.218 -503.714)" fill="#9ec8ff"/>
        <path id="Path_513" data-name="Path 513" d="M863.705,607.668h-59.63a.961.961,0,0,1-.9-1.417,2.25,2.25,0,0,1,1.932-1.417h59.63a.961.961,0,0,1,.9,1.417A2.249,2.249,0,0,1,863.705,607.668Z" transform="translate(-803.084 -517.818)" fill="#9ec8ff"/>
      </g>
      <g id="Group_394" data-name="Group 394" transform="translate(284.749 101.6)">
        <path id="Path_514" data-name="Path 514" d="M1160.419,587.644c0-1,12.051-34.305,3.9-55.745-5.7-15.012-6.605-33.027-6.605-33.027s-11.109,15.913-3.6,40.233c4.62,14.969,6.505,19.116,6.905,23.519s-1.8,26.422-1.8,26.422Z" transform="translate(-1148.109 -497.571)" fill="#9cd499"/>
        <g id="Group_388" data-name="Group 388" transform="translate(3.044 0.931)">
          <path id="Path_515" data-name="Path 515" d="M1158.419,588.586a.37.37,0,0,1-.368-.407c.022-.22,2.193-22.033,1.8-26.351-.261-2.873-1.149-5.589-3.093-11.539-1-3.048-2.235-6.841-3.8-11.9a53.439,53.439,0,0,1-1.018-29.44,37.291,37.291,0,0,1,4.671-11.115.37.37,0,0,1,.673.194c.009.18.964,18.131,6.582,32.914,3.047,8.018,3.658,18.59,1.818,31.424a156.671,156.671,0,0,1-5.208,22.746c-.255.852-.475,1.588-.49,1.724a.327.327,0,0,1-.089.224l-1.2,1.4A.37.37,0,0,1,1158.419,588.586Zm-1.795-89.367a40.609,40.609,0,0,0-3.974,9.948,52.71,52.71,0,0,0,1.018,29c1.561,5.057,2.8,8.847,3.794,11.893,1.962,6.005,2.858,8.746,3.127,11.7.35,3.853-1.234,20.665-1.687,25.322l.366-.427c.043-.22.172-.659.5-1.76,6.959-23.264,8.105-41.33,3.407-53.695C1158.344,518.483,1156.938,503.452,1156.625,499.219Z" transform="translate(-1150.354 -497.672)" fill="#74b570"/>
        </g>
        <path id="Path_516" data-name="Path 516" d="M1188.293,588.133c-1.8-37.03,7.006-57.247,25.021-73.26s18.815-20.217,18.815-20.217-2.8,31.226-13.211,42.034-25.621,18.816-27.823,24.42-1.4,24.42-1.4,24.42l-1.4,3.4Z" transform="translate(-1173.381 -494.656)" fill="#9cd499"/>
        <path id="Path_517" data-name="Path 517" d="M1181.659,717.785c-.2-.6,3.8-34.628,18.415-36.63s18.015,1.4,28.023-.2a62.5,62.5,0,0,0,12.61-3.4s-3.791,9.648-16.814,13.611c-9.207,2.8-21.217-1.8-28.223-.6s-10.609,16.213-10.609,16.213l-1.2,7.806Z" transform="translate(-1168.949 -621.106)" fill="#9cd499"/>
        <g id="Group_389" data-name="Group 389" transform="translate(14.155 11.44)">
          <path id="Path_518" data-name="Path 518" d="M1186.911,611.928a.37.37,0,0,1-.368-.336c-.022-.239-2.1-24.145,8.051-42.448,5.241-9.455,10.964-14.934,16.5-20.232,5.156-4.936,10.026-9.6,13.719-16.984a.37.37,0,0,1,.663.331c-3.75,7.5-8.665,12.206-13.869,17.188-5.5,5.261-11.177,10.7-16.364,20.057-10.033,18.1-7.983,41.784-7.962,42.021a.37.37,0,0,1-.334.4Z" transform="translate(-1186.355 -531.722)" fill="#74b570"/>
        </g>
        <g id="Group_390" data-name="Group 390" transform="translate(13.341 60.086)">
          <path id="Path_519" data-name="Path 519" d="M1184.088,716.1a.363.363,0,0,1-.1-.015.37.37,0,0,1-.252-.459c3.832-13.207,8.229-20.912,13.839-24.249,5.015-2.984,10.2-2.068,15.686-1.1,1.343.237,2.732.483,4.107.663,11.925,1.564,17.74-1.334,17.8-1.364a.37.37,0,0,1,.34.658c-.241.125-6.047,3.038-18.233,1.439-1.391-.182-2.788-.429-4.139-.668-5.347-.945-10.4-1.838-15.178,1.005-5.438,3.235-9.73,10.8-13.506,23.818A.371.371,0,0,1,1184.088,716.1Z" transform="translate(-1183.717 -689.347)" fill="#74b570"/>
        </g>
        <g id="Group_391" data-name="Group 391" transform="translate(32.456 27.452)">
          <path id="Path_520" data-name="Path 520" d="M1246.026,591.654a.37.37,0,0,1-.226-.663,44.865,44.865,0,0,1,17.07-7.377.37.37,0,0,1,.14.727,44.03,44.03,0,0,0-16.758,7.236A.369.369,0,0,1,1246.026,591.654Z" transform="translate(-1245.656 -583.607)" fill="#74b570"/>
        </g>
        <g id="Group_392" data-name="Group 392" transform="translate(21.147 35.859)">
          <path id="Path_521" data-name="Path 521" d="M1209.382,626.6a.37.37,0,0,1-.318-.559c5.212-8.79,11.317-11,24.628-15.177a.37.37,0,1,1,.221.707c-13.123,4.113-19.138,6.292-24.212,14.848A.37.37,0,0,1,1209.382,626.6Z" transform="translate(-1209.012 -610.846)" fill="#74b570"/>
        </g>
        <path id="Path_522" data-name="Path 522" d="M1158.772,791.687h-8.939a6.577,6.577,0,0,1-6.46-5.342l-2.882-15.075h27.623l-2.882,15.075A6.577,6.577,0,0,1,1158.772,791.687Z" transform="translate(-1140.491 -685.9)" fill="#f39892"/>
        <g id="Group_393" data-name="Group 393" transform="translate(0.16 87.732)">
          <path id="Path_523" data-name="Path 523" d="M1167.771,780.4H1141.75a.741.741,0,1,1,0-1.482h26.021a.741.741,0,0,1,0,1.482Z" transform="translate(-1141.009 -778.923)" fill="#d54a41"/>
        </g>
      </g>
      <path id="Path_477" data-name="Path 477" d="M890.037,839.786H542.612c-2.508,0-4.541-1.281-4.541-2.861s2.034-2.861,4.541-2.861H890.037c2.508,0,4.541,1.281,4.541,2.861S892.545,839.786,890.037,839.786Z" transform="translate(-538.071 -627.714)" fill="#2e5b9a"/>
    </g>
  </g>
</svg>
