<svg xmlns="http://www.w3.org/2000/svg" xmlns:xlink="http://www.w3.org/1999/xlink" width="128" height="128" viewBox="0 0 128 128">
  <defs>
    <linearGradient id="linear-gradient" x1="0.943" y1="0.067" x2="0.035" y2="0.959" gradientUnits="objectBoundingBox">
      <stop offset="0" stop-color="#f6d365"/>
      <stop offset="1" stop-color="#fda085"/>
    </linearGradient>
    <filter id="Rectangle_142" x="0" y="0" width="128" height="128" filterUnits="userSpaceOnUse">
      <feOffset dy="6" input="SourceAlpha"/>
      <feGaussianBlur stdDeviation="6" result="blur"/>
      <feFlood flood-opacity="0.078"/>
      <feComposite operator="in" in2="blur"/>
      <feComposite in="SourceGraphic"/>
    </filter>
  </defs>
  <g id="Group_500" data-name="Group 500" transform="translate(-704 -544)">
    <g transform="matrix(1, 0, 0, 1, 704, 544)" filter="url(#Rectangle_142)">
      <rect id="Rectangle_142-2" data-name="Rectangle 142" width="92" height="92" rx="10" transform="translate(18 12)" fill="url(#linear-gradient)"/>
    </g>
    <g id="wage" transform="translate(743 576.924)">
      <g id="Group_223" data-name="Group 223" transform="translate(16.458 0.076)">
        <g id="Group_222" data-name="Group 222">
          <path id="Path_217" data-name="Path 217" d="M192.644,10.97l3.468-8.155a.963.963,0,0,0-.394-1.2L194.016.6a3.72,3.72,0,0,0-4.24.315l-.263.214a1.788,1.788,0,0,1-2.255,0l-.01-.009a3.719,3.719,0,0,0-4.7,0,1.788,1.788,0,0,1-2.257,0l-.267-.218A3.722,3.722,0,0,0,175.8.585l-1.747,1.028a.963.963,0,0,0-.4,1.209l3.489,8.142a11.921,11.921,0,0,0-6.091,4.945A.963.963,0,1,0,172.7,16.92a9.994,9.994,0,0,1,5.257-4.2h13.863a9.954,9.954,0,0,1,6.742,9.439v2.555a.963.963,0,0,0,1.926,0V22.158A11.874,11.874,0,0,0,192.644,10.97Zm-2.018-.177H179.17l-3.408-7.951,1.017-.6a1.789,1.789,0,0,1,2.031.156l.267.218a3.719,3.719,0,0,0,4.7,0,1.788,1.788,0,0,1,2.257,0l.01.009a3.72,3.72,0,0,0,4.691,0l.263-.214a1.788,1.788,0,0,1,2.038-.152l.978.581Z" transform="translate(-170.913 -0.076)" fill="#fff"/>
        </g>
      </g>
      <g id="Group_225" data-name="Group 225" transform="translate(44.104 27.388)">
        <g id="Group_224" data-name="Group 224">
          <path id="Path_218" data-name="Path 218" d="M459.644,283.987a.962.962,0,1,0,.282.681A.97.97,0,0,0,459.644,283.987Z" transform="translate(-458 -283.705)" fill="#fff"/>
        </g>
      </g>
      <g id="Group_227" data-name="Group 227" transform="translate(13.088 42.741)">
        <g id="Group_226" data-name="Group 226">
          <path id="Path_219" data-name="Path 219" d="M137.554,443.427a.962.962,0,1,0,.282.681A.97.97,0,0,0,137.554,443.427Z" transform="translate(-135.91 -443.145)" fill="#fff"/>
        </g>
      </g>
      <g id="Group_229" data-name="Group 229" transform="translate(0 18.55)">
        <g id="Group_228" data-name="Group 228">
          <path id="Path_220" data-name="Path 220" d="M49.3,213.688a3.65,3.65,0,0,0-1.188-2.7,3.657,3.657,0,0,0-2.471-6.356h-10.4a3.657,3.657,0,0,0-2.471,6.356,3.653,3.653,0,0,0,0,5.393,3.653,3.653,0,0,0-.751,4.43H28.1v-3.765a9.787,9.787,0,0,0-8.893-9.734.966.966,0,0,0-.416-.029l-.049,0a6.7,6.7,0,0,0,2.028-4.805v-9.591a.963.963,0,0,0-.963-.963H12.676a5.353,5.353,0,0,0-5.347,5.347v5.207a6.7,6.7,0,0,0,2.028,4.805l-.049,0a.968.968,0,0,0-.416.029A9.787,9.787,0,0,0,0,217.048v4.728a.963.963,0,0,0,.963.963H45.644a3.657,3.657,0,0,0,2.471-6.356A3.65,3.65,0,0,0,49.3,213.688ZM9.255,198.621v-1.349a3.425,3.425,0,0,1,3.421-3.421h6.17v2.577a2.364,2.364,0,0,1-2.362,2.361H9.255Zm0,3.858v-1.763h7.23A4.262,4.262,0,0,0,18.846,200v2.475a4.8,4.8,0,0,1-9.591,0Zm7.353,6.721-2.557,2.557L11.493,209.2Zm9.567,11.614H1.926v-2.771H9.784a.963.963,0,1,0,0-1.926h-7.8a7.861,7.861,0,0,1,6.845-6.857L13.37,213.8a.963.963,0,0,0,1.362,0l4.541-4.541a7.858,7.858,0,0,1,6.9,7.789Zm19.469,0h-10.4a1.733,1.733,0,1,1,0-3.467h10.4a1.733,1.733,0,1,1,0,3.467Zm0-5.393h-10.4a1.733,1.733,0,1,1,0-3.467h10.4a1.733,1.733,0,1,1,0,3.467Zm0-5.393h-10.4a1.733,1.733,0,1,1,0-3.467h10.4a1.733,1.733,0,1,1,0,3.467Z" transform="translate(0 -191.925)" fill="#fff"/>
        </g>
      </g>
      <g id="Group_231" data-name="Group 231" transform="translate(32.691 16.764)">
        <g id="Group_230" data-name="Group 230">
          <path id="Path_221" data-name="Path 221" d="M342.806,178.642a1.2,1.2,0,1,1,1.4-1.18.963.963,0,1,0,1.926,0,3.146,3.146,0,0,0-2.361-2.972v-.144a.963.963,0,0,0-1.926,0v.144a3.146,3.146,0,0,0-2.361,2.972,3.224,3.224,0,0,0,3.324,3.106,1.2,1.2,0,1,1-1.4,1.18.963.963,0,0,0-1.926,0,3.146,3.146,0,0,0,2.361,2.972v.062a.963.963,0,1,0,1.926,0v-.062a3.146,3.146,0,0,0,2.361-2.972A3.224,3.224,0,0,0,342.806,178.642Z" transform="translate(-339.482 -173.383)" fill="#fff"/>
        </g>
      </g>
    </g>
  </g>
</svg>
