<svg id="Group_483" data-name="Group 483" xmlns="http://www.w3.org/2000/svg" width="305.777" height="292.169" viewBox="0 0 305.777 292.169">
  <g id="Group_481" data-name="Group 481" transform="translate(2.696)">
    <g id="Group_470" data-name="Group 470" transform="translate(2.71)">
      <circle id="Ellipse_61" data-name="Ellipse 61" cx="103.297" cy="103.297" r="103.297" transform="translate(0 146.084) rotate(-45)" fill="#baf4ee"/>
      <path id="Path_697" data-name="Path 697" d="M311.968,210.666V245.4a103.916,103.916,0,0,1-12.819,14.91V210.666h-.02v-.118c-.058-.257-6.29-5.424-11.084-9.348v-2.169l5.8-1.5a11.03,11.03,0,0,1,7.12.553c1.005.435,2.051.848,3.1,1.183V203.8c4.792,3.924,7.83,6.488,7.888,6.745v.118Z" transform="translate(-81.517 -39.752)" fill="#7fd6cb" opacity="0.73"/>
    </g>
    <g id="Group_480" data-name="Group 480" transform="translate(0 13.552)">
      <g id="Group_471" data-name="Group 471" transform="translate(1.777)">
        <path id="Path_698" data-name="Path 698" d="M163.011,110.469l30.313,71.124,22.155-15.156,12.839,18.656,2.317-31.471,26.813-16.339Z" transform="translate(-163.011 -110.469)" fill="#ffb031"/>
        <path id="Path_699" data-name="Path 699" d="M210.5,156.035l-27.067,18.523L205.586,159.4l12.839,18.656,2.317-31.471-42.726-25.446Z" transform="translate(-153.118 -103.434)" fill="#ff9433"/>
        <path id="Path_700" data-name="Path 700" d="M220.175,154.3l-42.158-33.16,42.726,25.446Z" transform="translate(-153.118 -103.434)" fill="#f73"/>
      </g>
      <g id="Group_472" data-name="Group 472" transform="translate(26.043 78.828)">
        <path id="Path_701" data-name="Path 701" d="M203.056,162.644c-.239-1.385-.543-2.768-.9-4.11l2.079-.556c.375,1.4.692,2.851.942,4.3Z" transform="translate(-161.471 -157.978)" fill="#00c8b7"/>
        <path id="Path_702" data-name="Path 702" d="M194.12,205.753a17.782,17.782,0,0,1-8.641-2.884l1.19-1.792a15.641,15.641,0,0,0,7.594,2.529ZM203.058,204l-.949-1.93A21.658,21.658,0,0,0,208.545,197l1.6,1.437A23.718,23.718,0,0,1,203.058,204Zm-23.568-8a17.742,17.742,0,0,1-1.855-7.818c0-.217,0-.436.013-.654l.027-.466,2.145.158-.022.392c-.007.194-.012.383-.012.571a15.562,15.562,0,0,0,1.633,6.866Zm83.252-.491-.01-2.152c2.8-.013,5.686-.128,8.572-.34l.158,2.145C268.528,195.377,265.594,195.494,262.742,195.507Zm-8.728-.282-1.374-.106c-2.645-.221-5.042-.518-7.327-.914l.365-2.12c2.223.385,4.56.675,7.14.891l1.346.1Zm26.116-.979-.29-2.132c2.768-.377,5.62-.848,8.479-1.4l.406,2.112C285.83,193.386,282.938,193.864,280.131,194.246Zm-43.367-2.175a41.676,41.676,0,0,1-7.048-3.123c-.337-.189-.674-.387-1.005-.587l1.112-1.843c.314.189.629.375.949.554a39.536,39.536,0,0,0,6.687,2.963Zm-21.474-.856-1.867-1.072a48.322,48.322,0,0,0,3.549-7.674l2.024.73A50.668,50.668,0,0,1,215.29,191.214Zm81.941-.239-.506-2.091c2.691-.654,5.492-1.4,8.323-2.205l.592,2.069C302.779,189.567,299.952,190.315,297.231,190.976Zm16.72-4.765-.664-2.048q4.1-1.329,8.163-2.776l.72,2.029Q318.084,184.867,313.951,186.21Zm-92.426-2.836a59.547,59.547,0,0,0-6.406-4.214l-.72-.382.986-1.913c.257.131.513.269.767.406a62.317,62.317,0,0,1,6.642,4.364Zm-38.69-3.236-1.5-1.538a18.381,18.381,0,0,1,7.919-4.249l.723,2.029A16.757,16.757,0,0,0,182.835,180.139Zm23.7-4.2a34.184,34.184,0,0,0-7.457-.825l-.873.01-.053-2.15a36.4,36.4,0,0,1,8.854.866Zm14.731-1.268-2.119-.377a49.955,49.955,0,0,0,.763-8.426l2.152.01A52.042,52.042,0,0,1,221.27,174.67Z" transform="translate(-177.635 -152.777)" fill="#00c8b7"/>
        <path id="Path_703" data-name="Path 703" d="M270.013,176.03l-.765-2.011q2.009-.767,4.012-1.551l.781,2.006Q272.033,175.258,270.013,176.03Z" transform="translate(-117.241 -148.426)" fill="#00c8b7"/>
      </g>
      <path id="Path_704" data-name="Path 704" d="M311.391,215.165a2.151,2.151,0,0,1-.207-4.292,51.114,51.114,0,0,0,33.687-17.48,2.151,2.151,0,0,1,3.244,2.826A55.376,55.376,0,0,1,311.6,215.155Q311.493,215.165,311.391,215.165Z" transform="translate(-64.834 -56.29)" fill="#00c8b7"/>
      <g id="Group_476" data-name="Group 476" transform="translate(70.404 60.399)">
        <g id="Group_475" data-name="Group 475">
          <path id="Path_705" data-name="Path 705" d="M354.3,229.289,279.334,273.5l-74.963-44.207a.43.43,0,0,1,.012-.121c.061-.28,4.2-3.735,10.51-8.862.06-.048.11-.1.171-.146,20.7-16.806,64.27-51.224,64.27-51.224s43.573,34.417,64.272,51.224c6.408,5.2,10.619,8.714,10.68,9.008A.428.428,0,0,1,354.3,229.289Z" transform="translate(-204.371 -132.325)" fill="#7a4c08"/>
          <g id="Group_473" data-name="Group 473" transform="translate(12.35)">
            <path id="Path_706" data-name="Path 706" d="M305.257,146.871H224.376a12.563,12.563,0,0,0-12.562,12.562v122.29a12.561,12.561,0,0,0,12.562,12.56H325.722a12.561,12.561,0,0,0,12.562-12.56V179.9Z" transform="translate(-211.814 -146.871)" fill="#fff"/>
            <path id="Path_707" data-name="Path 707" d="M268.131,167.338a12.56,12.56,0,0,0,12.562,12.56h20.465l-33.027-33.027Z" transform="translate(-174.688 -146.871)" fill="#e6e8e8"/>
            <rect id="Rectangle_311" data-name="Rectangle 311" width="36.853" height="36.853" rx="2.697" transform="translate(19.132 20.671)" fill="#82ebe3"/>
            <path id="Path_708" data-name="Path 708" d="M293.932,187.713H226.977a3.606,3.606,0,0,0-3.605,3.606h0a3.606,3.606,0,0,0,3.605,3.606h66.955a3.606,3.606,0,0,0,3.606-3.606h0A3.606,3.606,0,0,0,293.932,187.713Z" transform="translate(-204.195 -119.947)" fill="#d9dbdb"/>
            <path id="Path_709" data-name="Path 709" d="M293.932,198.537H226.977a3.606,3.606,0,0,0-3.605,3.606h0a3.606,3.606,0,0,0,3.605,3.605h66.955a3.606,3.606,0,0,0,3.606-3.605h0A3.606,3.606,0,0,0,293.932,198.537Z" transform="translate(-204.195 -112.811)" fill="#d9dbdb"/>
            <path id="Path_710" data-name="Path 710" d="M263.525,209.037H226.977a3.606,3.606,0,0,0-3.605,3.606h0a3.606,3.606,0,0,0,3.605,3.605h36.548a3.606,3.606,0,0,0,3.605-3.605h0A3.606,3.606,0,0,0,263.525,209.037Z" transform="translate(-204.195 -105.889)" fill="#d9dbdb"/>
          </g>
          <g id="Group_474" data-name="Group 474" transform="translate(0.008 96.962)">
            <path id="Path_711" data-name="Path 711" d="M354.3,205.309v71.918a9.159,9.159,0,0,1-9.136,9.134H213.487a9.137,9.137,0,0,1-9.111-9.134V205.309l74.962,44.2Z" transform="translate(-204.376 -205.309)" fill="#ffb031"/>
            <path id="Path_712" data-name="Path 712" d="M350.768,271.6l-48.249-48.249-24.182,14.258-24.19-14.263L205.9,271.6a9.053,9.053,0,0,0,6.59,2.864h131.68A9.089,9.089,0,0,0,350.768,271.6Z" transform="translate(-203.375 -193.415)" fill="#ff9433"/>
          </g>
        </g>
      </g>
      <g id="Group_479" data-name="Group 479" transform="translate(195 58.411)">
        <g id="Group_478" data-name="Group 478">
          <path id="Path_713" data-name="Path 713" d="M319.943,145.9a45.222,45.222,0,0,0-40.362,41.534,44.716,44.716,0,0,0,7.9,28.851,10.922,10.922,0,0,1,1.04,10.41l-3.559,8.568,14.546-3.771a10.965,10.965,0,0,1,7.121.551A45.036,45.036,0,1,0,319.943,145.9Z" transform="translate(-279.463 -145.673)" fill="#00c8b7"/>
          <g id="Group_477" data-name="Group 477" transform="translate(21.468 26.037)">
            <path id="Path_714" data-name="Path 714" d="M317.081,202.069l2.476-2.474s-1.966-4.634,6.277-12.446c4.9-4.651,6-9.154,5.6-12.834a12.866,12.866,0,0,0-11.279-11.281c-3.682-.4-8.185.7-12.834,5.6-7.813,8.241-12.446,6.275-12.446,6.275l-2.476,2.476Z" transform="translate(-292.402 -160.314)" fill="#fff"/>
            <path id="Path_715" data-name="Path 715" d="M296.291,177.42a6.82,6.82,0,0,0,9.534,9.532Z" transform="translate(-290.707 -150.781)" fill="#fff"/>
            <path id="Path_716" data-name="Path 716" d="M319.471,167.089l-1.541,1.541a14.9,14.9,0,0,0-4.75-4.725l1.553-1.555a3.351,3.351,0,1,1,4.739,4.739Z" transform="translate(-278.705 -161.365)" fill="#fff"/>
          </g>
        </g>
        <path id="Path_717" data-name="Path 717" d="M321.672,145.7A38.9,38.9,0,1,1,281.91,209.29a44.994,44.994,0,0,0,3.957,6.985,10.922,10.922,0,0,1,1.04,10.41l-3.559,8.568,14.546-3.771a10.965,10.965,0,0,1,7.121.551A45.027,45.027,0,1,0,321.672,145.7Z" transform="translate(-277.851 -145.667)" fill="#08b29d"/>
      </g>
      <path id="Path_718" data-name="Path 718" d="M166.286,123.722l9.833,22.562a2.268,2.268,0,0,1-1.181,2.985l-.35.151a2.268,2.268,0,0,1-2.988-1.2l-9.481-22.715a2.267,2.267,0,0,1,1.3-3.007h0A2.266,2.266,0,0,1,166.286,123.722Z" transform="translate(-161.939 -102.632)" fill="#ffb031"/>
    </g>
  </g>
  <g id="Group_482" data-name="Group 482" transform="translate(0 6.593)">
    <path id="Path_719" data-name="Path 719" d="M190.646,218.877a7.228,7.228,0,1,0,7.228,7.229A7.228,7.228,0,0,0,190.646,218.877Zm0,10.154a2.926,2.926,0,1,1,2.925-2.925A2.926,2.926,0,0,1,190.646,229.032Z" transform="translate(-145.085 -32.044)" fill="#baf4ee"/>
    <path id="Path_720" data-name="Path 720" d="M307.393,236.507a7.228,7.228,0,1,0,7.228,7.228A7.227,7.227,0,0,0,307.393,236.507Zm0,10.154a2.926,2.926,0,1,1,2.925-2.927A2.927,2.927,0,0,1,307.393,246.662Z" transform="translate(-68.121 -20.421)" fill="#baf4ee"/>
    <path id="Path_721" data-name="Path 721" d="M342.363,168.839a5.535,5.535,0,1,0,5.535,5.535A5.535,5.535,0,0,0,342.363,168.839Zm0,7.775a2.24,2.24,0,1,1,2.24-2.24A2.24,2.24,0,0,1,342.363,176.614Z" transform="translate(-43.951 -65.03)" fill="#baf4ee"/>
    <path id="Path_722" data-name="Path 722" d="M283.752,115.477a5.852,5.852,0,1,0,5.852,5.852A5.852,5.852,0,0,0,283.752,115.477Zm0,8.222a2.369,2.369,0,1,1,2.368-2.369A2.369,2.369,0,0,1,283.752,123.7Z" transform="translate(-82.799 -100.208)" fill="#baf4ee"/>
    <path id="Path_723" data-name="Path 723" d="M171.052,197.656a6.152,6.152,0,1,0,6.154,6.152A6.152,6.152,0,0,0,171.052,197.656Z" transform="translate(-157.292 -46.033)" fill="#baf4ee"/>
    <path id="Path_724" data-name="Path 724" d="M319.162,209.931a4.475,4.475,0,1,0,4.475,4.475A4.475,4.475,0,0,0,319.162,209.931Z" transform="translate(-58.547 -37.941)" fill="#baf4ee"/>
    <path id="Path_725" data-name="Path 725" d="M230.667,116.586a6.541,6.541,0,1,0,6.541,6.541A6.541,6.541,0,0,0,230.667,116.586Z" transform="translate(-118.248 -99.477)" fill="#baf4ee"/>
    <path id="Path_726" data-name="Path 726" d="M251.065,259.374a4.766,4.766,0,1,0,4.765,4.767A4.766,4.766,0,0,0,251.065,259.374Z" transform="translate(-103.632 -5.347)" fill="#baf4ee"/>
    <path id="Path_727" data-name="Path 727" d="M306.994,131.79a5.594,5.594,0,1,0,5.595,5.595A5.594,5.594,0,0,0,306.994,131.79Z" transform="translate(-67.306 -89.454)" fill="#baf4ee"/>
    <circle id="Ellipse_62" data-name="Ellipse 62" cx="3.184" cy="3.184" r="3.184" transform="translate(38.362 85.827)" fill="#baf4ee"/>
    <path id="Path_728" data-name="Path 728" d="M343.487,152.026a5.432,5.432,0,1,0,5.432,5.434A5.433,5.433,0,0,0,343.487,152.026Z" transform="translate(-43.142 -76.114)" fill="#baf4ee"/>
    <circle id="Ellipse_63" data-name="Ellipse 63" cx="3.466" cy="3.466" r="3.466" transform="translate(7.243 104.658)" fill="#baf4ee"/>
    <path id="Path_729" data-name="Path 729" d="M257.858,111.762l2.177-2.177a1.94,1.94,0,0,0-2.743-2.744l-2.177,2.177-2.177-2.177a1.941,1.941,0,0,0-2.744,2.744l2.177,2.177-2.177,2.177a1.941,1.941,0,1,0,2.744,2.744l2.177-2.177,2.177,2.177a1.94,1.94,0,0,0,2.743-2.744Z" transform="translate(-101.437 -106.275)" fill="#baf4ee"/>
    <path id="Path_730" data-name="Path 730" d="M168.547,151.412l2.177-2.177a1.941,1.941,0,0,0-2.744-2.744l-2.177,2.177-2.177-2.177a1.941,1.941,0,1,0-2.744,2.744l2.177,2.177-2.177,2.177a1.941,1.941,0,0,0,2.744,2.744l2.177-2.177,2.177,2.177a1.941,1.941,0,1,0,2.744-2.744Z" transform="translate(-160.315 -80.136)" fill="#baf4ee"/>
    <path id="Path_731" data-name="Path 731" d="M322.793,231.2l1.845-1.843a1.644,1.644,0,0,0-2.325-2.325l-1.843,1.843-1.843-1.843a1.644,1.644,0,0,0-2.325,2.325l1.843,1.843-1.843,1.843a1.644,1.644,0,1,0,2.325,2.325l1.843-1.843,1.843,1.843a1.644,1.644,0,0,0,2.325-2.325Z" transform="translate(-57.8 -26.986)" fill="#baf4ee"/>
  </g>
</svg>
