<svg xmlns="http://www.w3.org/2000/svg" width="28.866" height="25.258" viewBox="0 0 28.866 25.258">
  <g id="headphones" transform="translate(0 -32)">
    <g id="Group_8" data-name="Group 8" transform="translate(0 32)">
      <path id="Path_28" data-name="Path 28" d="M27.062,46.433v-1.8a12.629,12.629,0,0,0-25.258,0v1.8a1.807,1.807,0,0,0-1.8,1.8v7.217a1.807,1.807,0,0,0,1.8,1.8H5.412a1.807,1.807,0,0,0,1.8-1.8V48.237a1.807,1.807,0,0,0-1.8-1.8h-1.8v-1.8a10.825,10.825,0,0,1,21.65,0v1.8h-1.8a1.807,1.807,0,0,0-1.8,1.8v7.217a1.807,1.807,0,0,0,1.8,1.8h3.608a1.807,1.807,0,0,0,1.8-1.8V48.237A1.807,1.807,0,0,0,27.062,46.433Zm-21.65,1.8,0,7.217H1.8V48.237Zm21.65,8.119v-.9H23.454V48.237h3.608v7.217h0Z" transform="translate(0 -32)"/>
    </g>
  </g>
</svg>
