<svg xmlns="http://www.w3.org/2000/svg" xmlns:xlink="http://www.w3.org/1999/xlink" width="357" height="212" viewBox="0 0 357 212">
  <defs>
    <linearGradient id="linear-gradient" x1="0.538" y1="0.919" x2="0.433" y2="0.181" gradientUnits="objectBoundingBox">
      <stop offset="0" stop-color="#f79239"/>
      <stop offset="1" stop-color="#f7c759"/>
    </linearGradient>
    <linearGradient id="linear-gradient-2" y1="0.5" x2="1" y2="0.5" gradientUnits="objectBoundingBox">
      <stop offset="0" stop-color="#3f2323"/>
      <stop offset="1" stop-color="#5e3434"/>
    </linearGradient>
  </defs>
  <g id="Group_460" data-name="Group 460" transform="translate(-711 -292)">
    <rect id="Rectangle_238" data-name="Rectangle 238" width="357" height="212" transform="translate(711 292)" fill="#e7f3fe"/>
    <g id="Group_455" data-name="Group 455" transform="translate(23.011 18.515)">
      <g id="Group_322" data-name="Group 322" transform="translate(698.989 283.922)">
        <g id="Group_307" data-name="Group 307" transform="translate(9.168 0)">
          <path id="Path_315" data-name="Path 315" d="M747.573,194.79c-.091.519-.182,1.024-.272,1.53-6.522,36.667-25.608,52.784-25.608,52.784H435.343s-17.517-32.194-9.815-60.291c.117-.428.233-.856.363-1.271,5.07-16.726,19.371-31.792,52.045-37.458,7.028-1.219,13.5-2.386,19.462-3.5.843-.169,1.66-.324,2.476-.48,20.732-3.968,35.189-7.507,46.184-11.553h.013c.8-.3,1.595-.609,2.373-.908,22.34-8.791,29.977-20.214,50-43.423q2.334-2.7,4.979-5.3c.389-.389.778-.765,1.18-1.128a110.734,110.734,0,0,1,40.6-24.246c.415-.143.83-.285,1.245-.415,19.8-6.275,41.309-6.366,59.5,4.616.687.415,1.374.843,2.062,1.3,14.405,9.5,26.541,26.295,33.789,52.888C750.451,149.733,750.814,175.133,747.573,194.79Z" transform="translate(-423.571 -54.852)" fill="#e7f3fe"/>
          <g id="Group_306" data-name="Group 306" transform="translate(1.957 4.276)">
            <path id="Path_316" data-name="Path 316" d="M677.808,122.429c-4.123,20.784-18.295,37.5-42.113,49.7-46.807,23.948-65.439,53.912-72.8,74.943H561.53l.039-.117c7.378-21.277,26.126-51.721,73.529-75.98,23.455-12.006,37.393-28.421,41.439-48.79,4.162-21-2.891-43.034-11.514-60.473.687.415,1.374.843,2.062,1.3C675.383,80.329,681.879,101.852,677.808,122.429Z" transform="translate(-384.611 -57.094)" fill="#fff"/>
            <path id="Path_317" data-name="Path 317" d="M699.076,162.78c-.091.519-.182,1.024-.272,1.53-16.765,7.715-38.145,16-65.231,24.246-21.445,6.522-36.5,16.091-44.927,28.538H587.09c8.493-13.057,23.948-23.04,46.107-29.783C660.684,178.948,682.246,170.559,699.076,162.78Z" transform="translate(-377.031 -27.119)" fill="#fff"/>
            <path id="Path_318" data-name="Path 318" d="M631.29,79.375c-.013,22.6-6.652,53.367-38.146,71.688-13.342,7.767-28.33,10.684-43.345,10.684-20.382,0-40.8-5.381-57.218-11.384-4.162-1.517-8.207-3.125-12.071-4.758.843-.169,1.66-.324,2.477-.48,32.428,13.368,76.317,24.129,109.509,4.823,30.962-18.01,37.484-48.324,37.5-70.573a134.175,134.175,0,0,0-1.686-20.81c.415-.143.83-.285,1.245-.415A135.837,135.837,0,0,1,631.29,79.375Z" transform="translate(-408.64 -58.15)" fill="#fff"/>
            <path id="Path_319" data-name="Path 319" d="M573.3,117.52c-6.314,8.337-17.491,12.512-33.387,12.512a129.05,129.05,0,0,1-21.86-2.1c.8-.3,1.595-.609,2.373-.908,26.074,4.188,43.474.752,51.837-10.282,7.494-9.867,6.677-24.557,3.138-38.444.389-.389.778-.765,1.18-1.128C580.351,91.536,581.3,106.978,573.3,117.52Z" transform="translate(-397.507 -52.509)" fill="#fff"/>
            <path id="Path_320" data-name="Path 320" d="M578.712,218.752h-1.335c-2.749-10.852-7.844-22.574-17.141-32.09-15.235-15.6-38.366-22.12-68.745-19.358-27.812,2.515-50.061-.454-66.411-8.843.117-.428.233-.856.363-1.271,16.155,8.363,38.236,11.319,65.931,8.817,30.807-2.788,54.275,3.864,69.795,19.76C570.738,195.569,575.937,207.627,578.712,218.752Z" transform="translate(-425.08 -28.776)" fill="#fff"/>
          </g>
        </g>
        <g id="Group_308" data-name="Group 308" transform="translate(7.456 130.012)">
          <path id="Path_321" data-name="Path 321" d="M465.043,207.15s7.455-16.694-9.724-29.659-21.069-22.366-21.069-22.366-5.8,30.445,4.7,44.894v20.907H464.38Z" transform="translate(-419.166 -155.125)" fill="#4e8fb7"/>
          <path id="Path_322" data-name="Path 322" d="M445.776,213.045s-.843-11.669,10.776-19.481S468,177.875,468,177.875s8.924,22.348-2.357,35.17Z" transform="translate(-415.277 -148.378)" fill="#70b2dd"/>
          <path id="Path_323" data-name="Path 323" d="M455.328,214.936s1.8-15.721-12.878-24.149S424.7,171.5,424.7,171.5s-8.1,27.39,5.186,43.436Z" transform="translate(-422.25 -150.268)" fill="#abdaf7"/>
        </g>
        <g id="Group_316" data-name="Group 316" transform="translate(102.812 34.978)">
          <g id="Group_311" data-name="Group 311" transform="translate(10.989 61.654)">
            <g id="Group_309" data-name="Group 309" transform="translate(0 65.571)">
              <path id="Path_324" data-name="Path 324" d="M521.917,180.987a104.969,104.969,0,0,1-17.647,21.606v7.839H521.8s5.539-2.982,16.636-11.462C538.435,198.97,542.074,174.72,521.917,180.987Z" transform="translate(-504.27 -179.952)" fill="#f49187"/>
              <path id="Path_325" data-name="Path 325" d="M608.907,195.092s-.817,15.559-4.707,16.531-19.827-13.459-19.827-13.459l-1.813-6.885,11.808-8.613S608.427,186.989,608.907,195.092Z" transform="translate(-481.05 -179.147)" fill="#f49187"/>
            </g>
            <g id="Group_310" data-name="Group 310" transform="translate(17.529)">
              <path id="Path_326" data-name="Path 326" d="M628.117,210.9c-3.734-7.131-26.748-1.945-26.748-1.945l16.376,16.48H544.15c2.438-8.48.985-29.121.985-29.121-.013.156-.039.3-.065.454-1.076,8.285-5.459,12.668-5.459,12.668-.311,4.227-5.186,4.538-5.186,4.538a28.656,28.656,0,0,0-2.5-9.348c-4.784-9.893-14.016-8.635-14.016-8.635-.985-5.186,4.538-6.483,4.538-6.483s6.794-39.546,16.687-47.325,26.022-11.669,26.022-11.669l16.609-1.128s32.57,6.483,39.053,17.659,5.355,53.484,5.355,53.484C631.358,204.737,628.117,210.9,628.117,210.9Z" transform="translate(-517.789 -129.38)" fill="url(#linear-gradient)"/>
              <path id="Path_327" data-name="Path 327" d="M595.559,201.019s2.755-23.987-6.159-44.894c0,0,1.459,31.766-11.507,40.68s-35.008,7.131-40.518,22.69L586,219.064Z" transform="translate(-511.98 -121.448)" fill="#f6613a" opacity="0.5"/>
              <path id="Path_328" data-name="Path 328" d="M541.837,187.916c-1.076,8.285-5.459,12.668-5.459,12.668-.311,4.227-5.186,4.538-5.186,4.538a28.655,28.655,0,0,0-2.5-9.348,27.444,27.444,0,0,0,7.209-11.98c3.436-11.358,1.245-23.7,1.089-24.583C539.789,169.829,541.319,182.86,541.837,187.916Z" transform="translate(-514.556 -120.533)" fill="#f6613a" opacity="0.5"/>
            </g>
          </g>
          <path id="Path_329" data-name="Path 329" d="M566,199.15s18.314-12.8,33.873-7.617,14.262,15.883,9.238,17.828h-38.79Z" transform="translate(-474.973 -49.66)" fill="#feb19e"/>
          <g id="Group_312" data-name="Group 312" transform="translate(43.543)">
            <path id="Path_330" data-name="Path 330" d="M575.708,135.017s-3.812,21.394-15.157,21.51c-9.906.091-7.611-12.9-6.872-16.207.1-.493.181-.765.181-.765l-4.11-15.663,21.821-11.553.441,2.4v.039Z" transform="translate(-523.335 -72.78)" fill="#feb19e"/>
            <path id="Path_331" data-name="Path 331" d="M553.679,140.32c.1-.493.181-.765.181-.765l-4.11-15.663,21.821-11.553.441,2.4v.039C574.878,140.32,554.081,140.32,553.679,140.32Z" transform="translate(-523.335 -72.78)" fill="#ff856a"/>
            <path id="Path_332" data-name="Path 332" d="M580.508,113.737a38.318,38.318,0,0,0,3.566-12.723c.648-6.645-1.215-8.184-3.97-8.184,0,0-1.459-7.537-4.944-10.13s-17.666,1.216-23.095,4.458-9.4-5.688-11.913-5.316-3,7.261-1.053,10.34c0,0-4.538-2.513-5.268-5.106s-5.915,2.107-4.052,11.751,6.159,10.859,6.159,10.859.81,10.211,9.158,11.345,30.388-.81,30.388-.81Z" transform="translate(-529.377 -81.829)" fill="url(#linear-gradient-2)"/>
            <path id="Path_333" data-name="Path 333" d="M538.875,104.7s4.052,27.714,14.262,31.28,18.746-7.335,20.043-10.252,1.842-9.032,1.842-9.032,3.479.808,3.885-5.351-4.944-9.8-6.24.81c0,0-5-2.755-3.484-12.155,0,0-5.727,5.4-13.722,5.4s-1.081-5.4-1.081-5.4S548.654,105.294,538.875,104.7Z" transform="translate(-526.561 -76.44)" fill="#feb19e"/>
          </g>
          <g id="Group_315" data-name="Group 315" transform="translate(0 130.109)">
            <g id="Group_313" data-name="Group 313" transform="translate(53.102 17.491)">
              <rect id="Rectangle_155" data-name="Rectangle 155" width="66.558" height="3.566" transform="translate(0 8.536)" fill="#abdaf7"/>
              <rect id="Rectangle_156" data-name="Rectangle 156" width="20.529" height="3.566" transform="translate(46.029 8.536)" fill="#70b2dd"/>
              <path id="Path_334" data-name="Path 334" d="M585.4,204.31s-5.886-8.783-14.716-8.642c-6.681.106-6.929,4.32-6.929,4.32s-4.39-.523-4.5,4.322Z" transform="translate(-530.077 -195.667)" fill="#ffc7ae"/>
            </g>
            <g id="Group_314" data-name="Group 314" transform="translate(0 0)">
              <path id="Path_335" data-name="Path 335" d="M521.452,204.588s.324-4.862-1.836-5.51a3.921,3.921,0,0,0-3.782,1.188s-1.621-7.131-7.672-7.346S491.2,198.861,497.9,204.588Z" transform="translate(-495.795 -178.993)" fill="#feb19e"/>
              <path id="Path_336" data-name="Path 336" d="M536.822,203.917a2,2,0,0,1-2,2H498.417a2,2,0,1,1,0-3.993h36.408A2,2,0,0,1,536.822,203.917Z" transform="translate(-495.609 -176.321)" fill="#70b2dd"/>
              <path id="Path_337" data-name="Path 337" d="M526.021,203.917a2,2,0,0,1-2,2H498.417a2,2,0,1,1,0-3.993h25.608A2,2,0,0,1,526.021,203.917Z" transform="translate(-495.609 -176.321)" fill="#abdaf7"/>
              <path id="Path_338" data-name="Path 338" d="M514.293,204.557l-6.454-21.09a1.823,1.823,0,0,0-2.215-1.228h0a1.823,1.823,0,0,0-1.236,2.405l7.716,20.48A1.649,1.649,0,0,0,514.293,204.557Z" transform="translate(-493.281 -182.177)" fill="#525559"/>
            </g>
          </g>
        </g>
        <g id="Group_318" data-name="Group 318" transform="translate(25.209 100.898)">
          <path id="Path_339" data-name="Path 339" d="M479.122,160.56c.7,4.254-.827,8.05-3.418,8.478s-5.26-2.674-5.964-6.929.829-8.049,3.418-8.477S478.419,156.306,479.122,160.56Z" transform="translate(-425.969 -126.465)" fill="#fff" stroke="#f230db" stroke-miterlimit="10" stroke-width="1"/>
          <path id="Path_340" data-name="Path 340" d="M528.489,204.254H459.369a7.418,7.418,0,0,1-6.872-4.681c-8.091-20.2-14.068-39.844-16.492-58.554a7.4,7.4,0,0,1,7.339-8.35H513.41a7.381,7.381,0,0,1,7.3,6.3c2.632,17.335,7.779,35.915,14.755,55.429A7.39,7.39,0,0,1,528.489,204.254Z" transform="translate(-435.942 -132.67)" fill="#90c6e0"/>
          <path id="Path_341" data-name="Path 341" d="M525.689,204.254h-66.32a7.418,7.418,0,0,1-6.872-4.681c-8.091-20.2-14.068-39.844-16.492-58.554a7.4,7.4,0,0,1,7.339-8.35H510.6a7.4,7.4,0,0,1,7.313,6.3c2.619,17.335,7.766,35.915,14.742,55.429A7.383,7.383,0,0,1,525.689,204.254Z" transform="translate(-435.942 -132.67)" fill="#abdaf7"/>
          <g id="Group_317" data-name="Group 317" transform="translate(43.294 59.902)">
            <path id="Path_342" data-name="Path 342" d="M512.38,212.75H485.826a9.048,9.048,0,0,1-8.544-6.094l-7.948-27.773c4.4.013,8.713-.013,12.953-.013,1.413,0,2.827,0,4.227.013l6.327,21.6a7.163,7.163,0,0,0,5.6,4.6l9.932,1.556a4.106,4.106,0,0,1,3.371,3.177Z" transform="translate(-469.333 -178.87)" fill="#90c6e0"/>
            <path id="Path_343" data-name="Path 343" d="M495.478,205.087l-2.243-.207a8.429,8.429,0,0,1-7.092-5.238l-6.82-20.771c1.413,0,2.827,0,4.227.013l6.327,21.6A7.163,7.163,0,0,0,495.478,205.087Z" transform="translate(-466.37 -178.87)" fill="#90c6e0" opacity="0.35" style="mix-blend-mode: multiply;isolation: isolate"/>
          </g>
          <path id="Path_344" data-name="Path 344" d="M478.7,161.141c.984,4.106-.276,7.929-2.815,8.537s-5.4-2.226-6.379-6.334.275-7.929,2.814-8.537S477.719,157.033,478.7,161.141Z" transform="translate(-426.086 -126.129)" fill="#fff"/>
        </g>
        <g id="Group_319" data-name="Group 319" transform="translate(-10.185 194.68)">
          <rect id="Rectangle_157" data-name="Rectangle 157" width="355.143" height="6.483" fill="#70b2dd"/>
          <rect id="Rectangle_158" data-name="Rectangle 158" width="70.015" height="6.483" transform="translate(285.128)" fill="#4e8fb7"/>
        </g>
        <g id="Group_320" data-name="Group 320" transform="translate(270.013 142.154)">
          <path id="Path_345" data-name="Path 345" d="M637.392,188.884l-3.025-18.8-9.616,1.189,3.566,18.69Z" transform="translate(-624.75 -162.83)" fill="#70b2dd"/>
          <path id="Path_346" data-name="Path 346" d="M634.285,188.814l3.33-23.2a1.308,1.308,0,0,1,1.51-1.1h0A1.309,1.309,0,0,1,640.2,166L636.509,190h1.4l4.952-18.393a1.343,1.343,0,0,1,1.621-.953h0a1.342,1.342,0,0,1,.972,1.641L640.83,190l-4.646,2.16Z" transform="translate(-621.922 -164.489)" fill="#4e8fb7"/>
          <path id="Path_347" data-name="Path 347" d="M646.751,183.25v23.935a3.837,3.837,0,0,1-3.838,3.838H629.088a3.838,3.838,0,0,1-3.838-3.838V183.25Z" transform="translate(-624.602 -158.925)" fill="#abdaf7"/>
          <rect id="Rectangle_159" data-name="Rectangle 159" width="21.502" height="5.614" transform="translate(0.648 24.325)" fill="#90c6e0"/>
        </g>
        <g id="Group_321" data-name="Group 321" transform="translate(231.483 9.059)">
          <circle id="Ellipse_16" data-name="Ellipse 16" cx="30.586" cy="30.586" r="30.586" transform="translate(8.454 10.174)" fill="#70b2dd" opacity="0.35" style="mix-blend-mode: multiply;isolation: isolate"/>
          <circle id="Ellipse_17" data-name="Ellipse 17" cx="28.78" cy="28.78" r="28.78" transform="translate(0 25.416) rotate(-26.203)" fill="#70b2dd"/>
          <circle id="Ellipse_18" data-name="Ellipse 18" cx="21.174" cy="21.174" r="21.174" transform="translate(14.433 56.306) rotate(-81.414)" fill="#abdaf7"/>
          <path id="Path_348" data-name="Path 348" d="M637.253,94.5H626.821V80.4a2.014,2.014,0,0,0-4.027,0V98.2h14.459a1.849,1.849,0,0,0,0-3.7Z" transform="translate(-586.8 -56.93)" fill="#70b2dd"/>
        </g>
      </g>
    </g>
  </g>
</svg>
