<svg xmlns="http://www.w3.org/2000/svg" width="22" height="25.667" viewBox="0 0 22 25.667">
  <g id="login_2_" data-name="login (2)" transform="translate(0 -0.008)">
    <path id="Path_17" data-name="Path 17" d="M91.443,12.23a6.111,6.111,0,1,1,6.111-6.111A6.118,6.118,0,0,1,91.443,12.23Zm0-10.389a4.278,4.278,0,1,0,4.278,4.278A4.283,4.283,0,0,0,91.443,1.841Zm0,0" transform="translate(-80.443)" fill="#0e293c"/>
    <path id="Path_18" data-name="Path 18" d="M21.083,267.008H.917A.917.917,0,0,1,0,266.091v-4.278a5.812,5.812,0,0,1,5.805-5.805H16.194A5.812,5.812,0,0,1,22,261.813v4.278A.917.917,0,0,1,21.083,267.008Zm-19.25-1.833H20.167v-3.361a3.977,3.977,0,0,0-3.972-3.972H5.805a3.977,3.977,0,0,0-3.972,3.972Zm0,0" transform="translate(0 -241.333)" fill="#0e293c"/>
  </g>
</svg>
