<svg xmlns="http://www.w3.org/2000/svg" width="38.915" height="25.943" viewBox="0 0 38.915 25.943">
  <g id="pay" transform="translate(0 -85.333)">
    <g id="Group_142" data-name="Group 142" transform="translate(0 85.333)">
      <g id="Group_141" data-name="Group 141" transform="translate(0 0)">
        <path id="Path_157" data-name="Path 157" d="M34.861,85.333H4.054A4.059,4.059,0,0,0,0,89.387v17.836a4.059,4.059,0,0,0,4.054,4.054H34.861a4.059,4.059,0,0,0,4.054-4.054V89.387A4.059,4.059,0,0,0,34.861,85.333Zm2.432,21.89a2.435,2.435,0,0,1-2.432,2.432H4.054a2.435,2.435,0,0,1-2.432-2.432V89.387a2.435,2.435,0,0,1,2.432-2.432H34.861a2.435,2.435,0,0,1,2.432,2.432v17.836Z" transform="translate(0 -85.333)"/>
      </g>
    </g>
    <g id="Group_144" data-name="Group 144" transform="translate(0 90.197)">
      <g id="Group_143" data-name="Group 143" transform="translate(0 0)">
        <path id="Path_158" data-name="Path 158" d="M38.1,149.333H.811a.811.811,0,0,0-.811.811v4.864a.811.811,0,0,0,.811.811H38.1a.811.811,0,0,0,.811-.811v-4.864A.811.811,0,0,0,38.1,149.333Zm-.811,4.864H1.621v-3.243H37.293V154.2Z" transform="translate(0 -149.333)"/>
      </g>
    </g>
    <g id="Group_146" data-name="Group 146" transform="translate(4.864 101.548)">
      <g id="Group_145" data-name="Group 145" transform="translate(0 0)">
        <path id="Path_159" data-name="Path 159" d="M74.54,298.667H64.811a.811.811,0,1,0,0,1.621H74.54a.811.811,0,1,0,0-1.621Z" transform="translate(-64 -298.667)"/>
      </g>
    </g>
    <g id="Group_148" data-name="Group 148" transform="translate(4.864 104.79)">
      <g id="Group_147" data-name="Group 147">
        <path id="Path_160" data-name="Path 160" d="M74.54,341.333H64.811a.811.811,0,0,0,0,1.622H74.54a.811.811,0,0,0,0-1.622Z" transform="translate(-64 -341.333)"/>
      </g>
    </g>
    <g id="Group_150" data-name="Group 150" transform="translate(27.565 99.926)">
      <g id="Group_149" data-name="Group 149" transform="translate(0 0)">
        <path id="Path_161" data-name="Path 161" d="M366.721,277.333H365.1a2.435,2.435,0,0,0-2.432,2.432v1.621a2.435,2.435,0,0,0,2.432,2.432h1.621a2.435,2.435,0,0,0,2.432-2.432v-1.621A2.435,2.435,0,0,0,366.721,277.333Zm.811,4.054a.811.811,0,0,1-.811.811H365.1a.811.811,0,0,1-.811-.811v-1.621a.811.811,0,0,1,.811-.811h1.621a.811.811,0,0,1,.811.811Z" transform="translate(-362.667 -277.333)"/>
      </g>
    </g>
  </g>
</svg>
